<?xml version="1.0" encoding="UTF-8" standalone="no"?>
<!-- Created with Inkscape (http://www.inkscape.org/) -->

<svg
   xmlns:dc="http://purl.org/dc/elements/1.1/"
   xmlns:cc="http://creativecommons.org/ns#"
   xmlns:rdf="http://www.w3.org/1999/02/22-rdf-syntax-ns#"
   xmlns:svg="http://www.w3.org/2000/svg"
   xmlns="http://www.w3.org/2000/svg"
   xmlns:sodipodi="http://sodipodi.sourceforge.net/DTD/sodipodi-0.dtd"
   xmlns:inkscape="http://www.inkscape.org/namespaces/inkscape"
   id="svg2"
   version="1.1"
   inkscape:version="0.48.4 r9939"
   width="300"
   height="258.75"
   xml:space="preserve"
   sodipodi:docname="tesseroid-coord-sys.svg"
   inkscape:export-filename="tesseroid-coord-sys.png"
   inkscape:export-xdpi="800"
   inkscape:export-ydpi="800"><metadata
     id="metadata8"><rdf:RDF><cc:Work
         rdf:about=""><dc:format>image/svg+xml</dc:format><dc:type
           rdf:resource="http://purl.org/dc/dcmitype/StillImage" /><dc:title></dc:title></cc:Work></rdf:RDF></metadata><defs
     id="defs6"><marker
       inkscape:stockid="Arrow1Mend"
       orient="auto"
       refY="0"
       refX="0"
       id="Arrow1Mend"
       style="overflow:visible"><path
         id="path4059"
         d="M 0,0 5,-5 -12.5,0 5,5 0,0 z"
         style="fill-rule:evenodd;stroke:#000000;stroke-width:1pt;marker-start:none"
         transform="matrix(-0.4,0,0,-0.4,-4,0)"
         inkscape:connector-curvature="0" /></marker></defs><sodipodi:namedview
     pagecolor="#ffffff"
     bordercolor="#666666"
     borderopacity="1"
     objecttolerance="10"
     gridtolerance="10"
     guidetolerance="10"
     inkscape:pageopacity="1"
     inkscape:pageshadow="2"
     inkscape:window-width="1366"
     inkscape:window-height="719"
     id="namedview4"
     showgrid="false"
     inkscape:zoom="1.7241457"
     inkscape:cx="126.44168"
     inkscape:cy="112.48601"
     inkscape:window-x="0"
     inkscape:window-y="25"
     inkscape:window-maximized="1"
     inkscape:current-layer="g10"
     units="pc" /><g
     id="g10"
     inkscape:groupmode="layer"
     inkscape:label="tesseroid_coordsys"
     transform="matrix(1.25,0,0,-1.25,0,258.75005)"><path
       d="m 101.05408,21.594543 c 10.00649,-4.61788 33.25972,-7.079942 49.26917,-1.88029"
       style="fill:none;stroke:#000000;stroke-width:0.96806979;stroke-linecap:butt;stroke-linejoin:miter;stroke-miterlimit:4;stroke-opacity:1;stroke-dasharray:none"
       id="path84"
       inkscape:connector-curvature="0" /><path
       d="m 146.63963,18.518071 -1.24307,-2.439325 5.84636,3.93372 -7.04292,-0.250401 2.43963,-1.243994 z"
       style="fill:#000000;fill-opacity:1;fill-rule:evenodd;stroke:#000000;stroke-width:0.48403484;stroke-linecap:butt;stroke-linejoin:miter;stroke-miterlimit:4;stroke-opacity:1;stroke-dasharray:none"
       id="path88"
       inkscape:connector-curvature="0" /><path
       d="m 141.45145,26.924512 24.44842,45.88744"
       style="fill:none;stroke:#000000;stroke-width:0.96806979;stroke-linecap:butt;stroke-linejoin:miter;stroke-miterlimit:4;stroke-opacity:1;stroke-dasharray:none"
       id="path92"
       inkscape:connector-curvature="0" /><path
       d="m 164.07854,69.393732 0.79947,-2.617695 1.47689,6.890234 -4.89405,-5.072005 2.61769,0.799466 z"
       style="fill:#000000;fill-opacity:1;fill-rule:evenodd;stroke:#000000;stroke-width:0.48403531;stroke-linecap:butt;stroke-linejoin:miter;stroke-miterlimit:4;stroke-opacity:1;stroke-dasharray:none"
       id="path96"
       inkscape:connector-curvature="0" /><path
       d="m 154.38449,19.557873 c 4.01097,11.086261 1.69133,20.121889 -1.12724,26.328706"
       style="fill:none;stroke:#000000;stroke-width:0.96806979;stroke-linecap:butt;stroke-linejoin:miter;stroke-miterlimit:4;stroke-opacity:1;stroke-dasharray:none"
       id="path100"
       inkscape:connector-curvature="0" /><path
       d="m 154.85768,42.359635 2.56335,-0.959104 -4.56371,5.366106 1.0399,-6.969844 0.96046,2.562842 z"
       style="fill:#000000;fill-opacity:1;fill-rule:evenodd;stroke:#000000;stroke-width:0.48403543;stroke-linecap:butt;stroke-linejoin:miter;stroke-miterlimit:4;stroke-opacity:1;stroke-dasharray:none"
       id="path104"
       inkscape:connector-curvature="0" /><path
       d="m 26.859909,12.929387 0,2.141854 0.09495,2.232146 0.09029,2.2368 0.09495,2.140923 0.09494,2.233077 0.185237,2.232145 0.185236,2.141855 0.185237,2.235869 0.280181,2.138131 0.280182,2.2368 0.280182,2.232145 0.275527,2.141855 0.375127,2.232145 0.370473,2.141855 0.465418,2.235869 0.465419,2.138131 0.465418,2.141854 0.465418,2.235869 0.560363,2.138131 0.55571,2.141855 0.560363,2.141854 0.560364,2.141855 0.650654,2.140923 0.650655,2.04784 0.7456,2.140924 0.7456,2.138131 0.650654,2.050633 0.835891,2.04784 0.7456,2.140923 0.835891,2.04784 0.840546,2.046909 0.930836,1.955688 0.835891,2.04784 0.930836,1.951963 0.930837,2.050633 1.025781,1.952895 0.930837,1.956618 1.021127,1.951963 1.120727,1.861673 1.021128,1.956618 1.116073,1.861673 1.120727,1.861668 1.116072,1.86168 1.116073,1.86167 1.211018,1.76673 1.211018,1.77138 1.206364,1.76673 1.305964,1.77045 1.211018,1.76766 1.301309,1.67643 1.301309,1.67551 1.305964,1.67271 1.396254,1.58521 1.396255,1.67272 1.301309,1.58521 1.396255,1.48748 1.491199,1.58149 1.396255,1.4912 1.486546,1.49027 1.491199,1.48747 1.4912,1.39626 1.486546,1.4912 1.4912,1.30131 1.581491,1.39625 1.581491,1.30504 1.4912,1.30224 1.581491,1.3013 1.676436,1.21102 1.581491,1.21102 1.581491,1.21102 1.676436,1.11607 1.676436,1.21102 1.676437,1.02113 1.581491,1.11979 1.766727,1.02206 1.67643,1.02578 1.67644,0.93084 1.76673,0.93084 1.67643,0.93083 1.76673,0.83589 1.67644,0.83962 1.77138,0.83682 1.76673,0.83589 1.76672,0.7456 1.77139,0.65066 1.76672,0.7456 1.77138,0.65065 1.86168,0.56036 1.76672,0.55944 1.76673,0.55664 1.86167,0.56036 1.77139,0.46542 1.86167,0.46542 1.76673,0.37047 1.86167,0.3742 1.77138,0.3714 1.86167,0.28018 1.76673,0.27925 1.86167,0.27646 M 57.297327,7.439314 l 0,2.2321456 0.09495,2.1418544 0,2.232146 0.09494,2.236799 0.09029,2.140924 0.09495,2.233077 0.185237,2.232145 0.09494,2.141855 0.185237,2.235869 0.280181,2.233076 0.185237,2.232146 0.185236,2.141854 0.280182,2.235869 0.280182,2.233076 0.370473,2.141855 0.280181,2.232145 0.370473,2.235869 0.375127,2.138131 0.370473,2.2368 0.370473,2.140924 0.465418,2.138131 0.465418,2.2368 0.465418,2.140923 0.465419,2.138132 0.465418,2.141854 0.560363,2.141854 0.560364,2.141855 0.555709,2.046909 0.560364,2.141855 0.650654,2.046909 0.560364,2.141854 0.650654,2.046909 0.650655,2.046909 0.7456,2.04691 0.650654,2.050632 0.7456,1.952895 0.7456,2.046909 0.740946,1.956618 0.7456,1.955687 0.7456,1.952895 0.835891,1.956618 0.840545,1.951964 0.835891,1.861672 0.840545,1.861672 0.835892,1.95662 0.930836,1.76673 0.835891,1.86167 0.930836,1.77138 0.930837,1.86167 0.930836,1.76673 1.025782,1.67644 0.930836,1.76672 1.025782,1.67644 1.021127,1.67644 1.025782,1.67643 1.021127,1.58149 1.025782,1.67644 1.025782,1.58149 1.116072,1.49027 1.021128,1.58242 1.120727,1.48655 1.116073,1.4912 1.116073,1.49027 1.116072,1.39625 1.211018,1.39626 1.116073,1.39625 1.116077,1.30224 1.21102,1.30131 1.21101,1.30596 1.21102,1.30131 1.11608,1.21102 1.3013,1.21102 1.21102,1.21009 1.21102,1.117 1.21102,1.11607 1.30131,1.11608 1.21102,1.02578 1.30131,1.02112 1.21101,1.02579 1.30597,0.93083 1.30131,0.93084 1.21101,0.83589 1.30131,0.93084 1.30597,0.84054 1.30131,0.74467 1.30131,0.83682 1.30596,0.65066 1.30131,0.7456 1.39625,0.65065 1.30597,0.65066 1.30131,0.56036 1.3013,0.55943 1.39626,0.55664 1.30596,0.46542 1.30131,0.46542 1.39626,0.46542 1.30596,0.37419 1.30131,0.37141 1.39625,0.37047 M 96.021982,3.901205 l 0,6.609869 0.09495,2.138131 0,2.2368 0.09029,2.232146 0.09494,2.235868 0.09029,2.138132 0.09495,2.236799 0.09495,2.232146 0.09029,2.235869 0.185237,2.233076 0.09494,2.232146 0.185236,2.141854 0.185237,2.235869 0.18989,2.233077 0.185237,2.232145 0.185236,2.141855 0.185237,2.235869 0.185236,2.233076 0.280182,2.141855 0.185236,2.232145 0.280182,2.141855 0.280182,2.141854 0.280182,2.140924 0.280181,2.233076 0.275527,2.141855 0.28018,2.140923 0.37513,2.138131 0.27553,2.050633 0.37512,2.138131 0.37048,2.050633 0.28018,2.138131 0.37047,2.050632 0.37513,2.04784 0.46542,2.046909 0.37047,2.046909 0.37513,2.04691 0.46541,1.956618 0.37048,1.955687 0.46542,2.04784 0.46541,1.951964 0.37048,1.861672 0.46541,1.956618 0.46542,1.955688 0.56037,1.861675 0.46541,1.86167 0.46542,1.86167 0.56037,1.76766 0.46541,1.86167 0.55571,1.76673 0.46542,1.77138 0.56037,1.67551 0.5557,1.76766 0.56037,1.67643 0.56036,1.67551 0.55571,1.67271 0.56036,1.58522 0.55571,1.67271 0.65531,1.58521 0.55571,1.48748 0.56037,1.58149 0.65065,1.4912 0.56036,1.49027 0.65066,1.39625 0.65065,1.48748 0.65066,1.39625 0.56036,1.30504 0.65066,1.39625 0.65065,1.30224 0.65065,1.30131 0.65531,1.21102 0.65066,1.21102 0.65065,1.21102 0.7456,1.21008 0.65066,1.11701 0.65065,1.11607 0.65066,1.02485 0.7456,1.117 0.65065,1.02113 0.7456,0.93084 0.65066,0.93083 0.7456,0.93084 0.65065,0.93084 0.7456,0.84054 0.65065,0.83589 0.7456,0.7456 0.7456,0.7456 0.65066,0.74467 0.7456,0.65159 0.7456,0.65065 0.65065,0.65066 0.7456,0.56036 0.7456,0.55571 0.74095,0.56036 0.65531,0.46542 0.74094,0.46542 0.7456,0.46542 0.7456,0.37047 m -2.51232,-162.241985 0,8.748931 0.0903,2.232146 0,28.855927 0.0949,2.141854 0,13.126654 0.095,2.232146 0,8.562764 0.0903,2.050632 0,8.377527 0.0949,2.04784 0,6.140728 0.0903,1.956618 0,5.8652 0.0949,1.951964 0,5.679964 0.095,1.86167 0,3.72335 0.0903,1.76672 0,5.30856 0.0949,1.67272 0,3.35287 0.0903,1.67644 0,3.16298 0.0949,1.58149 0,3.07269 0.0949,1.4912 0,1.48655 0.0903,1.4912 0,2.7925 0.0949,1.30131 0,2.70222 0.0903,1.21009 0,1.30224 0.095,1.21102 0,2.32709 0.0949,1.11607 0,2.14186 0.0903,1.02112 0,1.02578 0.095,0.93084 0,1.86167 0.0903,0.93084 0,0.83589 0.095,0.7456 0,0.83962 0.0949,0.74187 0,1.39626 0.0903,0.65437 0,0.55664 0.095,0.56037 0,1.11607 0.0903,0.46542 0,0.37047 0.0949,0.46542 m 40.9568,-161.2199267 0,2.2358689 -0.0949,2.1381311 0,4.3777237 -0.0903,2.233076 0,2.232146 -0.0949,2.2368 -0.0903,2.232145 -0.095,2.141855 -0.0949,2.232145 -0.0903,2.2368 -0.095,2.232146 -0.18523,2.235868 -0.095,2.233077 -0.18524,2.141854 -0.0903,2.232146 -0.18989,2.235869 -0.18523,2.233076 -0.18524,2.141855 -0.18524,2.232145 -0.28018,2.141855 -0.18523,2.232145 -0.18524,2.141855 -0.28018,2.235869 -0.28018,2.138131 -0.18524,2.141854 -0.28018,2.141855 -0.28018,2.141854 -0.28019,2.140924 -0.27552,2.138131 -0.37513,2.050633 -0.28018,2.138131 -0.27553,2.050632 -0.37513,2.138131 -0.28018,2.050633 -0.37047,2.04784 -0.37047,2.046909 -0.37513,1.955687 -0.37047,2.04784 -0.37513,1.951964 -0.37047,1.956618 -0.46542,1.955687 -0.37048,1.952895 -0.37512,1.956618 -0.46542,1.861673 -0.37047,1.951966 -0.46542,1.86167 -0.46542,1.86167 -0.46542,1.77138 -0.46542,1.86168 -0.46541,1.76672 -0.46542,1.77046 -0.46542,1.76765 -0.46542,1.67644 -0.56036,1.67551 -0.46542,1.67271 -0.46542,1.67643 -0.55571,1.67644 -0.46542,1.58149 -0.56036,1.58149 -0.56036,1.58522 -0.55571,1.48747 -0.46542,1.4912 -0.56036,1.48655 -0.55571,1.4912 -0.56037,1.39625 -0.56036,1.39626 -0.65065,1.39625 -0.55571,1.30131 -0.56037,1.39626 -0.56036,1.21101 -0.65066,1.30504 -0.55571,1.20729 -0.56036,1.21102 -0.65065,1.21102 -0.56037,1.11607 -0.65065,1.11607 -0.56036,1.02579 -0.65066,1.11607 -0.65065,1.02578 -0.56037,0.93084 -0.65065,1.02112 -0.65066,0.84055 -0.65065,0.93084 -0.56036,0.83589 -0.65066,0.83961 -0.65065,0.83682 -0.65066,0.7456 -0.65531,0.74467 -0.65065,0.65159 -0.65066,0.65065 -0.65065,0.65066 -0.56036,0.56036 -0.65066,0.55571 -0.65065,0.56036 -0.65066,0.46542 -0.65531,0.46542 -0.65065,0.46542 -0.65066,0.37047 m 80.33211,-157.8670541 0,2.1409236 -0.0949,2.2330765 0,2.232146 -0.0903,2.141854 -0.095,2.235869 -0.0949,2.233076 -0.18523,2.141855 -0.0903,2.232145 -0.18989,2.235869 -0.18524,2.233077 -0.18524,2.141854 -0.28018,2.232146 -0.28018,2.235869 -0.18524,2.233076 -0.37047,2.141855 -0.28018,2.232145 -0.28018,2.141855 -0.37048,2.232145 -0.37512,2.141855 -0.37048,2.235869 -0.46541,2.138131 -0.37048,2.2368 -0.46541,2.140923 -0.46542,2.138131 -0.46542,2.141855 -0.56036,2.141854 -0.46542,2.141855 -0.56037,2.046909 -0.55571,2.141854 -0.56036,2.140924 -0.65065,2.04784 -0.56037,2.046909 -0.65065,2.046909 -0.65066,2.046909 -0.65065,2.050633 -0.65066,2.04784 -0.7456,1.951964 -0.65065,2.050632 -0.7456,1.952895 -0.7456,1.956618 -0.83589,1.951964 -0.7456,1.956618 -0.7456,1.861673 -0.83589,1.861674 -0.84055,1.86167 -0.83589,1.86167 -0.84054,1.86168 -0.93084,1.86167 -0.83589,1.76673 -0.93084,1.77138 -0.93083,1.76673 -0.93084,1.67643 -0.93084,1.67644 -0.93083,1.76673 -1.02578,1.58149 -0.93084,1.67643 -1.02113,1.58149 -1.02578,1.58522 -1.02113,1.58242 -1.02578,1.58149 -1.02578,1.49027 -1.02113,1.48748 -1.11607,1.4912 -1.02578,1.39625 -1.11608,1.39626 -1.11607,1.39625 -1.12072,1.39625 -1.11608,1.30131 -1.11607,1.30504 -1.11607,1.30224 -1.11608,1.21101 -1.21101,1.21009 -1.11608,1.2073 -1.21102,1.11979 -1.21101,1.11701 -1.11608,1.11607 -1.21101,1.02485 -1.21102,1.02206 -1.21102,1.02578 -1.20636,0.93084 -1.21102,0.93083 -1.21102,0.93084 -1.30131,0.83589 -1.21102,0.83961 -1.21102,0.83683 -1.30131,0.7456 -1.21101,0.74467 -1.21102,0.74187 -1.30131,0.65438 -1.21102,0.65159 -1.30596,0.65065 -1.30131,0.55943 -1.21102,0.55664 -1.30131,0.46542 -1.30596,0.46542 -1.20637,0.46542 -1.30596,0.37419 -1.30131,0.37141 -1.21102,0.37047 M 26.859909,12.929387 l 1.305964,-0.280182 1.301309,-0.370473 1.396254,-0.280181 1.30131,-0.280182 1.396254,-0.370473 1.4912,-0.280182 1.396255,-0.280182 1.491199,-0.276458 L 39.4262,10.231823 41.007691,9.9516414 42.593836,9.6714596 44.175327,9.3912779 45.756818,9.1148195 47.433254,8.8355686 49.014745,8.6494013 50.691182,8.3701504 52.457909,8.0899687 54.134345,7.9047322 55.901073,7.6245505 57.672454,7.439314 59.439182,7.1591323 61.300854,6.9738959 63.072236,6.6937141 64.933909,6.5084777 66.795582,6.3223104 68.747545,6.1333506 70.609218,5.9481142 72.565836,5.7628778 74.5178,5.5776413 76.474418,5.391474 78.431036,5.2025143 80.383,5.0172778 82.429909,4.8320414 84.386527,4.646805 86.433436,4.55186 88.480345,4.3666236 90.6222,4.2716786 l 2.046909,-0.1852364 2.051563,-0.091222 2.137201,-0.1889598 2.141854,-0.090291 2.046913,-0.094945 2.14185,-0.091222 2.14186,-0.1889598 2.14185,-0.090291 2.23215,-0.094945 2.14185,0 2.14185,-0.091222 2.23215,-0.094014 2.14185,-0.094945 2.23215,0 2.14185,-0.090291 2.2368,-0.094945 4.4643,0 2.14185,-0.091222 20.01298,0 2.2368,0.091222 4.374,0 2.23215,0.094945 2.2368,0.090291 2.1372,0 2.2368,0.094945 2.14185,0.094014 2.23215,0.091222 2.14185,0 2.14186,0.094945 2.1372,0.090291 2.14185,0.1889598 2.14185,0.091222 2.14186,0.094945 2.14185,0.090291 2.04691,0.1889598 2.14186,0.091222 2.04691,0.1852364 2.04691,0.094945 2.0469,0.1852364 2.04691,0.094945 2.05157,0.1852364 1.95196,0.1852364 2.04691,0.1852365 1.95662,0.1889597 1.95662,0.1861673 1.95196,0.1852365 1.86167,0.1852364 1.95662,0.1852364 1.86167,0.1889598 1.86168,0.1861673 1.86167,0.1852364 1.86167,0.2801818 M 32.444927,56.213278 l 1.305964,-0.280182 1.206364,-0.276459 1.305963,-0.27925 1.301309,-0.280182 1.305964,-0.280182 1.396254,-0.280182 1.396255,-0.276458 1.396254,-0.279251 1.396255,-0.280182 1.486546,-0.280181 1.491199,-0.280182 1.486546,-0.276459 1.4912,-0.188959 1.581491,-0.276459 1.581491,-0.279251 1.586145,-0.186167 1.671782,-0.279251 1.586145,-0.186167 1.671782,-0.279251 1.676437,-0.186167 1.676436,-0.279251 1.766727,-0.186167 1.771382,-0.18896 1.676436,-0.185237 1.861673,-0.185236 1.766727,-0.185237 1.766728,-0.186167 1.861673,-0.18896 1.861672,-0.185236 1.861673,-0.185237 1.861673,-0.185236 1.861672,-0.186167 1.956618,-0.09401 1.956618,-0.185236 1.861673,-0.186167 1.951964,-0.09401 1.956618,-0.185236 2.046909,-0.09495 1.956618,-0.09122 1.951964,-0.188959 2.046913,-0.09029 2.05156,-0.09495 1.95196,-0.09122 2.04691,-0.09401 2.05157,-0.09495 2.04691,-0.09029 2.0469,-0.09495 2.14186,-0.09122 2.04691,-0.09401 2.04691,0 2.14185,-0.09495 2.04691,0 2.14186,-0.09029 2.0469,0 2.14186,-0.09495 4.18876,0 2.14186,-0.09122 10.51938,0 2.1372,0.09122 4.18876,0 2.14186,0.09495 2.14185,0 2.04691,0.09029 2.14185,0 2.04691,0.09495 2.04691,0 2.14186,0.09401 2.04691,0.09122 2.05156,0.09495 2.04691,0.09029 2.04691,0.09495 2.04691,0.09401 2.04691,0.09122 1.95661,0.09495 2.04691,0.09029 1.95662,0.188959 2.04691,0.09122 1.95662,0.09495 1.95196,0.185236 1.95662,0.09401 1.95196,0.186167 1.86168,0.185236 1.95662,0.09401 1.86167,0.186167 1.95662,0.185236 1.86167,0.185237 1.76673,0.185236 1.86167,0.18896 1.86167,0.186167 1.76673,0.185237 1.77138,0.185236 1.76673,0.185237 1.77138,0.18896 m -169.226981,46.167621 1.021127,-0.280181 1.025782,-0.276459 1.116073,-0.279251 1.116073,-0.186167 1.120727,-0.279251 1.116072,-0.186167 1.211019,-0.279251 1.206363,-0.186167 1.211019,-0.279251 1.211018,-0.186168 1.301309,-0.27925 1.305963,-0.186168 1.30131,-0.18896 1.305963,-0.276458 1.301309,-0.18896 1.396255,-0.185236 1.396254,-0.185237 1.396255,-0.185236 1.396254,-0.186167 1.396255,-0.18896 1.4912,-0.185237 1.396254,-0.185236 1.486546,-0.185236 1.4912,-0.186168 1.581491,-0.188959 1.4912,-0.185237 1.581491,-0.09122 1.486545,-0.18896 1.586145,-0.185236 1.581491,-0.09122 1.581491,-0.18896 1.676437,-0.09029 1.581491,-0.186167 1.676436,-0.09401 1.581491,-0.09494 1.676436,-0.185236 1.676436,-0.09122 1.67178,-0.09401 1.67644,-0.09494 1.77138,-0.09029 1.67178,-0.186168 1.67644,-0.09401 1.77138,0 1.76673,-0.09494 1.67643,-0.09029 1.76673,-0.09495 1.77138,-0.09122 1.76673,0 1.76673,-0.09401 1.77138,-0.09495 1.76673,0 1.77138,-0.09029 3.53345,0 1.86168,-0.09494 7.17116,0 1.76673,-0.09122 1.76672,0 1.86168,0.09122 7.17116,0 1.76673,0.09494 3.53811,0 1.76672,0.09029 1.86168,0 1.77138,0.09495 1.76673,0.09401 1.67643,0 1.76673,0.09122 1.77138,0.09495 1.76673,0.09029 1.67643,0.09494 1.76673,0 1.67644,0.09401 1.76673,0.186168 1.67643,0.09029 1.67644,0.09494 1.67643,0.09401 1.67644,0.09122 1.67178,0.185236 1.67644,0.09494 1.58149,0.09401 1.67644,0.186167 1.58149,0.09029 1.58614,0.18896 1.58149,0.09122 1.58149,0.185236 1.5815,0.18896 1.4912,0.09122 1.58149,0.185237 1.4912,0.188959 1.48654,0.186168 1.4912,0.185236 m -132.458943,38.444469 0.7456,-0.18616 0.835891,-0.18896 0.7456,-0.18524 0.835891,-0.18524 0.840545,-0.18523 0.835891,-0.18617 0.840546,-0.18896 0.835891,-0.18524 0.930836,-0.0912 0.835891,-0.18896 0.930836,-0.18523 0.930837,-0.18524 0.930836,-0.0949 1.025782,-0.18523 0.930836,-0.18524 1.025782,-0.0949 1.021127,-0.18524 0.930837,-0.0912 1.025781,-0.18896 1.116073,-0.0903 1.025782,-0.18617 1.021127,-0.094 1.116073,-0.18523 1.120727,-0.0949 1.021128,-0.0912 1.116072,-0.094 1.120727,-0.18524 1.206368,-0.0949 1.12072,-0.0912 1.11608,-0.094 1.21101,-0.095 1.11608,-0.0903 1.21102,-0.18617 1.20636,-0.094 1.21102,-0.0949 1.11607,0 1.21102,-0.0903 1.30596,-0.0949 1.20637,-0.0912 1.21101,-0.094 1.21102,-0.0949 1.30131,0 1.21102,-0.0903 1.30596,-0.0949 1.20637,0 1.30596,-0.0912 1.30131,0 1.21102,-0.094 1.30131,0 1.30596,-0.0949 1.30131,0 1.30596,-0.0903 3.90858,0 1.30131,-0.0949 11.7304,0 1.30131,0.0949 3.90858,0 1.21102,0.0903 1.30597,0 1.3013,0.0949 1.30131,0 1.30597,0.094 1.21102,0 1.3013,0.0912 1.30131,0 1.21102,0.0949 1.30597,0.0903 1.20636,0 1.21102,0.0949 1.30596,0.094 1.20637,0.0912 1.21101,0.0949 1.21102,0.0903 1.21102,0 1.21102,0.0949 1.11607,0.094 1.21102,0.18617 1.20636,0.0903 1.12073,0.095 1.20636,0.094 1.12073,0.0912 1.11607,0.0949 1.11608,0.18524 1.11607,0.094 1.11607,0.0912 1.02578,0.0949 1.11608,0.18523 m -82.6592,26.99426 0.37512,-0.095 0.37048,-0.0903 0.46541,-0.0949 0.37513,-0.0912 0.46542,-0.094 0.46542,-0.0949 0.46542,-0.0903 0.46541,-0.0949 0.46542,-0.0912 0.46542,-0.094 0.46542,-0.0949 0.46542,-0.0903 0.46541,-0.0949 0.55571,-0.0912 0.46542,0 0.56037,-0.094 0.55571,-0.0949 0.46541,-0.0903 0.56037,-0.095 0.56036,0 0.55571,-0.0912 0.56036,-0.094 0.55571,-0.095 0.56037,0 0.56036,-0.0903 0.65065,-0.095 0.55571,0 0.56037,-0.0912 0.65065,-0.094 0.56037,0 0.65065,-0.095 0.65065,0 0.56037,-0.0903 0.65065,-0.0949 0.65066,0 0.56036,-0.0912 1.30131,0 0.65065,-0.094 0.65531,0 0.65066,-0.095 1.30131,0 0.65065,-0.0903 1.39626,0 0.6553,-0.0949 2.04691,0 0.65066,-0.0912 4.09382,0 0.65531,-0.094 3.44316,0 0.65065,0.094 4.18877,0 0.65065,0.0912 2.04691,0 0.65531,0.0949 1.30131,0 0.65065,0.0903 1.30597,0 0.65065,0.095 0.65066,0 0.65065,0.094 1.30596,0 0.65066,0.0912 0.55571,0 0.65531,0.0949 0.65065,0.0903 0.55571,0 0.65531,0.095 0.65065,0 0.55571,0.094 0.56037,0.0912 0.65065,0 0.56037,0.095 0.55571,0.0903 0.56036,0 0.56036,0.095"
       style="fill:none;stroke:#000000;stroke-width:0.46541819;stroke-linecap:butt;stroke-linejoin:miter;stroke-miterlimit:10;stroke-opacity:1;stroke-dasharray:0.93083636, 1.39625454;stroke-dashoffset:0"
       id="path108"
       inkscape:connector-curvature="0" /><path
       d="M 14.759036,14.510878 3.9641272,10.136878 15.504636,8.5553868 M 141.63296,26.891932 3.9641272,10.136878"
       style="fill:none;stroke:#000000;stroke-width:1.39625454;stroke-linecap:butt;stroke-linejoin:miter;stroke-miterlimit:10;stroke-opacity:1;stroke-dasharray:none"
       id="path112"
       inkscape:connector-curvature="0" /><path
       d="M 14.759036,14.510878 3.9641272,10.136878 15.504636,8.5553868"
       style="fill:none;stroke:#000000;stroke-width:1.39625454;stroke-linecap:butt;stroke-linejoin:miter;stroke-miterlimit:10;stroke-opacity:1;stroke-dasharray:none"
       id="path116"
       inkscape:connector-curvature="0" /><path
       d="m 226.33907,2.7851322 11.63546,0.1852365 -10.2392,5.5850181 M 141.63296,26.891932 237.97453,2.9703687"
       style="fill:none;stroke:#000000;stroke-width:1.39625454;stroke-linecap:butt;stroke-linejoin:miter;stroke-miterlimit:10;stroke-opacity:1;stroke-dasharray:none"
       id="path120"
       inkscape:connector-curvature="0" /><path
       d="m 226.33907,2.7851322 11.63546,0.1852365 -10.2392,5.5850181"
       style="fill:none;stroke:#000000;stroke-width:1.39625454;stroke-linecap:butt;stroke-linejoin:miter;stroke-miterlimit:10;stroke-opacity:1;stroke-dasharray:none"
       id="path124"
       inkscape:connector-curvature="0" /><path
       d="m 144.61071,181.13059 -2.97775,11.26498 -2.97774,-11.26498 m 2.97774,-154.238658 0,165.503638"
       style="fill:none;stroke:#000000;stroke-width:1.39625454;stroke-linecap:butt;stroke-linejoin:miter;stroke-miterlimit:10;stroke-opacity:1;stroke-dasharray:none"
       id="path128"
       inkscape:connector-curvature="0" /><path
       d="m 144.61071,181.13059 -2.97775,11.26498 -2.97774,-11.26498"
       style="fill:none;stroke:#000000;stroke-width:1.39625454;stroke-linecap:butt;stroke-linejoin:miter;stroke-miterlimit:10;stroke-opacity:1;stroke-dasharray:none"
       id="path132"
       inkscape:connector-curvature="0" /><path
       inkscape:connector-curvature="0"
       id="path134"
       style="fill:#000000;fill-opacity:1;fill-rule:nonzero;stroke:none"
       d="m 177.70287,89.166742 c 0,1.618724 -1.31248,2.931203 -2.93027,2.931203 -1.62245,0 -2.93493,-1.312479 -2.93493,-2.931203 0,-1.621517 1.31248,-2.933997 2.93493,-2.933997 1.61779,0 2.93027,1.31248 2.93027,2.933997" /><path
       d="m 174.7726,89.166746 0,-81.0767773 -33.13964,18.8019633 33.13964,62.274814"
       style="fill:none;stroke:#000000;stroke-width:0.8;stroke-linecap:butt;stroke-linejoin:miter;stroke-miterlimit:10;stroke-opacity:1;stroke-dasharray:2.4,2.4;stroke-dashoffset:0"
       id="path138"
       inkscape:connector-curvature="0" /><path
       d="m 172.44551,116.43746 -4.93437,10.2392 -0.7456,-11.35527 m 8.00706,-26.154644 -7.26146,37.509914"
       style="fill:none;stroke:#000000;stroke-width:1.39625454;stroke-linecap:butt;stroke-linejoin:miter;stroke-miterlimit:10;stroke-opacity:1;stroke-dasharray:none"
       id="path142"
       inkscape:connector-curvature="0" /><path
       d="m 172.44551,116.43746 -4.93437,10.2392 -0.7456,-11.35527"
       style="fill:none;stroke:#000000;stroke-width:1.39625454;stroke-linecap:butt;stroke-linejoin:miter;stroke-miterlimit:10;stroke-opacity:1;stroke-dasharray:none"
       id="path146"
       inkscape:connector-curvature="0" /><path
       d="m 203.81376,87.676477 11.07509,3.628401 -11.45021,2.422036 m -28.66604,-4.560168 40.11625,2.138132"
       style="fill:none;stroke:#000000;stroke-width:1.39625454;stroke-linecap:butt;stroke-linejoin:miter;stroke-miterlimit:10;stroke-opacity:1;stroke-dasharray:none"
       id="path150"
       inkscape:connector-curvature="0" /><path
       d="m 203.81376,87.676477 11.07509,3.628401 -11.45021,2.422036"
       style="fill:none;stroke:#000000;stroke-width:1.39625454;stroke-linecap:butt;stroke-linejoin:miter;stroke-miterlimit:10;stroke-opacity:1;stroke-dasharray:none"
       id="path154"
       inkscape:connector-curvature="0" /><path
       d="m 186.12787,105.82779 1.86167,8.19229 -5.67996,-6.14538 m -7.53698,-18.707954 13.21694,24.853334"
       style="fill:none;stroke:#000000;stroke-width:1.39625454;stroke-linecap:butt;stroke-linejoin:miter;stroke-miterlimit:10;stroke-opacity:1;stroke-dasharray:none"
       id="path158"
       inkscape:connector-curvature="0" /><path
       d="m 186.12787,105.82779 1.86167,8.19229 -5.67996,-6.14538"
       style="fill:none;stroke:#000000;stroke-width:1.39625454;stroke-linecap:butt;stroke-linejoin:miter;stroke-miterlimit:10;stroke-opacity:1;stroke-dasharray:none"
       id="path162"
       inkscape:connector-curvature="0" /><path
       inkscape:connector-curvature="0"
       id="path164"
       style="fill:#000000;fill-opacity:1;fill-rule:nonzero;stroke:none"
       d="m 95.654383,120.33016 c 0,1.6178 -1.316203,2.93121 -2.933997,2.93121 -1.617793,0 -2.931203,-1.31341 -2.931203,-2.93121 0,-1.61779 1.31341,-2.93399 2.931203,-2.93399 1.617794,0 2.933997,1.3162 2.933997,2.93399" /><path
       d="M 92.962749,120.59545 175.52472,88.508645"
       style="fill:none;stroke:#000000;stroke-width:0.80000001;stroke-linecap:butt;stroke-linejoin:miter;stroke-miterlimit:10;stroke-opacity:1;stroke-dasharray:2.4, 2.4;stroke-dashoffset:8"
       id="path168"
       inkscape:connector-curvature="0"
       sodipodi:nodetypes="cc" /><path
       d="m 56.366491,108.6203 0.189891,0.46541 0.275527,0.55944 0.189891,0.55664 0.185236,0.56036 0.280182,0.46542 0.185236,0.55571 0.185237,0.56036 0.280182,0.46542 0.185236,0.55943 0.280182,0.55664 0.185236,0.46542 0.280182,0.56036 0.185236,0.55571 0.280182,0.46542 0.185237,0.56036 0.185236,0.46542 0.280182,0.55944 0.280181,0.55664 0.185237,0.46541 0.280182,0.56037 0.185236,0.46542 0.280182,0.5557 0.185236,0.46542 0.280182,0.56037 0.185236,0.46541 0.280182,0.55944 0.280182,0.46542 0.185236,0.55664 0.280182,0.46541 0.185237,0.46542 0.280181,0.56037 0.275528,0.46541 0.18989,0.55571 0.275528,0.46542 0.280182,0.46542 0.280181,0.56036 0.185237,0.46542 0.280182,0.46542 0.280181,0.55943 0.185237,0.46542 0.280182,0.46542 0.280181,0.46542 0.275528,0.55664 0.189891,0.46541 0.275527,0.46542 0.280182,0.46542 0.280182,0.56036 0.280181,0.46542 0.280182,0.46542 0.185236,0.46542 0.280182,0.46542 0.275528,0.46542 0.280182,0.46541 0.280181,0.55571 0.280182,0.46542 0.280182,0.46542 0.275527,0.46542 0.189891,0.46542 0.275528,0.46541 0.280181,0.46542 0.280182,0.46542 0.280182,0.46542 0.280182,0.46542 0.275527,0.46541 0.280182,0.46542 0.280182,0.46542 0.280181,0.37513 0.280182,0.46542 0.275528,0.46541 0.280181,0.46542 0.280182,0.46542 0.280182,0.46542 0.280182,0.46542 0.275527,0.37047 0.280182,0.46542 0.280182,0.46542 0.280181,0.46541 0.370473,0.3742 0.280182,0.46542 0.280182,0.46542 0.280181,0.46542 0.275528,0.3714 0.280182,0.46542 0.280182,0.46542 0.280181,0.37047 0.370473,0.46542 0.280182,0.37512 0.280182,0.46542 0.280181,0.46542 0.275528,0.37047 0.375127,0.46542 m -0.375127,-0.46542 0.280182,0 0.375127,-0.0912 0.275527,0 0.280182,-0.094 0.560364,0 0.280181,-0.095 0.55571,0 0.375127,-0.0903 0.275527,0 0.280182,-0.095 0.560363,0 0.280182,-0.0912 0.370473,0 0.280182,-0.094 0.555709,0 0.375127,-0.095 0.555709,0 0.280182,-0.0903 0.650655,0 0.280182,-0.0949 0.650654,0 0.280182,-0.0912 0.280182,0 0.370473,-0.094 0.560363,0 0.370473,-0.095 0.560363,0 0.370473,-0.0903 0.560364,0 0.370473,-0.0949 0.930836,0 0.280182,-0.0912 0.650654,0 0.280182,-0.094 0.650655,0 0.375127,-0.0949 0.650654,0 0.280182,-0.0903 1.021128,0 0.280181,-0.095 0.650655,0 0.280182,-0.0912 1.025781,0 0.280182,-0.094 0.740946,0 0.28018,-0.0949 1.02578,0 0.28019,-0.0903 1.02112,0 0.37513,-0.095 0.93084,0 0.37047,-0.0912 1.02578,0 0.27553,-0.094 1.39625,0 0.28018,-0.095 1.02579,0 m -12.941422,-44.49119 0.189891,0.55664 0.09029,0.46542 0.09494,0.56037 0.09029,0.55571 0.189891,0.56036 0.09029,0.55943 0.09494,0.55664 0.185237,0.46542 0.09495,0.56036 0.09029,0.55571 0.09495,0.56037 0.185237,0.46541 0.09495,0.55944 0.09029,0.55664 0.185237,0.56036 0.09494,0.46542 0.09495,0.55571 0.185237,0.56036 0.09029,0.46542 0.189891,0.55943 0.09029,0.55664 0.09495,0.46542 0.185236,0.56036 0.09495,0.46542 0.185236,0.55571 0.09029,0.56037 0.09495,0.46541 0.185236,0.55944 0.09495,0.46541 0.185237,0.55664 0.09494,0.46542 0.09029,0.56037 0.185237,0.46541 0.09495,0.55571 0.185236,0.46542 0.09495,0.56037 0.18524,0.46541 0.0949,0.55944 0.18524,0.46541 0.0903,0.46542 0.18989,0.55664 0.0903,0.46542 0.18524,0.56036 0.0949,0.46542 0.18524,0.46542 0.0949,0.55571 0.18524,0.46542 0.0949,0.46542 0.18523,0.46541 0.0903,0.56037 0.18989,0.46542 0.0903,0.46541 0.18524,0.46542 0.18989,0.55944 0.0903,0.46541 0.18524,0.46542 0.0949,0.46542 0.18524,0.46542 0.0949,0.55664 0.18523,0.46542 0.18524,0.46541 0.0949,0.46542 0.18524,0.46542 0.0949,0.46542 0.18523,0.46542 0.18524,0.46542 0.0949,0.46541 0.18524,0.46542 0.0903,0.46542 0.18989,0.46542 0.18524,0.46542 0.0903,0.46541 0.18989,0.46542 0.18524,0.46542 0.0903,0.46542 0.18989,0.46542 0.18524,0.46542 0.0903,0.46541 0.18989,0.46542 0.18523,0.3742 0.0903,0.46542 0.1899,0.46541 0.18523,0.46542 0.0903,0.46542 0.18989,0.3714 0.18524,0.46542 0.18524,0.46542 0.0949,0.37047 0.18524,0.46542 0.18523,0.46542 0.0949,0.46542 m -51.851312,-41.32727 0.375127,-0.0949 0.370473,-0.0903 0.465418,0 0.375127,-0.0949 0.370473,0 0.465418,-0.0912 0.370473,0 0.375127,-0.094 0.465418,0 0.370473,-0.095 0.375127,0 0.465418,-0.0903 0.370473,0 0.370473,-0.0949 0.465418,0 0.375127,-0.0912 0.465419,0 0.370472,-0.094 0.375127,-0.0949 0.465419,0 0.370472,-0.0903 0.465419,0 0.370473,-0.0949 0.840545,0 0.465418,-0.0912 0.370473,0 0.465418,-0.094 0.375127,0 0.465418,-0.0949 0.465418,0 0.370473,-0.0903 0.465418,0 0.370473,-0.0949 0.465419,0 0.375127,-0.0912 0.465418,0 0.465418,-0.094 0.370473,0 0.465418,-0.0949 0.840545,0 0.465418,-0.0903 0.465419,0 0.370472,-0.0949 0.465419,0 0.465418,-0.0912 0.835891,0 0.465418,-0.094 0.465418,0 0.375127,-0.0949 0.930837,0 0.465418,-0.0903 0.370473,0 0.465418,-0.0949 0.930836,0 0.465418,-0.0912 0.375127,0 0.465419,-0.094 0.930836,0 0.465418,-0.0949 0.465418,0 0.370473,-0.0903 0.930837,0 0.465418,-0.0949 0.930836,0 0.465418,-0.0912 0.930837,0 0.465418,-0.094 0.835891,0 0.465418,-0.0949 0.930836,0 0.465419,-0.0903 0.930836,0 0.465418,-0.0949 0.930837,0 0.465418,-0.0912 0.930836,0 0.465418,-0.094 m 8.752657,-15.544036 0.0903,0.465418 0.0949,0.370473 0.0949,0.465418 0.0903,0.465418 0.0949,0.374196 0.0903,0.465419 0.18989,0.465418 0.0903,0.371403 0.0949,0.465419 0.0903,0.370472 0.0949,0.465419 0.0949,0.465418 0.0903,0.375127 0.095,0.465418 0.0903,0.370473 0.0949,0.465418 0.0949,0.465418 0.0903,0.374197 0.0949,0.465418 0.0903,0.371403 0.1899,0.465419 0.0903,0.370472 0.0949,0.465419 0.0903,0.375127 0.0949,0.465416 0.0949,0.37047 0.0903,0.3742 0.0949,0.46542 0.0903,0.3714 0.18989,0.46542 0.0903,0.37047 0.0949,0.46542 0.0903,0.37513 0.0949,0.37047 0.0949,0.46542 0.18524,0.3742 0.0903,0.3714 0.0949,0.46542 0.095,0.37047 0.0903,0.37513 0.0949,0.46542 0.18524,0.37047 0.0949,0.3742 0.0903,0.46541 0.0949,0.37141 0.0903,0.37047 0.18989,0.37513 0.0903,0.46542 0.0949,0.37047 0.0903,0.37419 0.18989,0.37141 0.0903,0.46542 0.0949,0.37047 0.0903,0.37513 0.18989,0.37047 0.0903,0.3742 0.0949,0.3714 0.0903,0.46542 0.18989,0.37047 0.0903,0.37513 0.0949,0.37047 0.0903,0.3742 0.18989,0.3714 0.0903,0.37047 0.0949,0.37513 0.18524,0.37047 0.0949,0.3742 0.0903,0.3714 0.0949,0.37048 0.18524,0.37512 0.0949,0.37048 0.0903,0.37419 0.18524,0.37141 0.0949,0.37047 0.0949,0.37513 0.18524,0.37047 0.0903,0.37419 0.0949,0.37141 0.18524,0.37047 0.0949,0.28018 0.0903,0.3742 0.18989,0.3714 0.0903,0.37048 0.18524,0.37512 0.0949,0.37048 0.095,0.28018 0.18523,0.37047 0.0903,0.37513 0.0949,0.37047 0.18524,0.28018 0.0949,0.37047 m -41.517166,-33.044686 0.280182,0 0.370473,-0.09029 0.280182,0 0.375127,-0.09495 0.275527,0 0.375127,-0.09122 0.650655,0 0.280182,-0.09401 0.280181,0 0.370473,-0.09494 0.280182,0 0.370473,-0.09029 0.650654,0 0.280182,-0.09495 0.375127,0 0.370473,-0.09122 0.650655,0 0.280181,-0.09401 0.370473,0 0.280182,-0.09494 0.7456,0 0.280182,-0.09029 0.370473,0 0.280181,-0.09494 0.7456,0 0.280182,-0.09122 0.740946,0 0.280181,-0.09401 0.375128,0 0.370472,-0.09495 0.650655,0 0.375127,-0.09029 0.650655,0 0.370473,-0.09494 0.650654,0 0.375127,-0.09122 0.7456,0 0.275528,-0.09401 0.375127,0 0.370473,-0.09495 1.025781,0 0.370473,-0.09029 0.7456,0 0.370473,-0.09494 0.655309,0 0.370473,-0.09122 0.7456,0 0.370472,-0.09401 0.7456,0 0.280182,-0.09494 1.116073,0 0.370473,-0.09029 0.7456,0 0.375127,-0.09494 1.116073,0 0.370472,-0.09122 0.65066,0 0.37513,-0.09401 1.11607,0 0.37047,-0.09494 1.12073,0 0.37047,-0.09029 1.11607,0 M 56.366491,108.6203 73.401727,92.235714 m 34.721123,57.246436 6.7011,-24.57222 M 95.461618,104.99096 104.67969,89.352914"
       style="fill:none;stroke:#000000;stroke-width:1.6;stroke-linecap:butt;stroke-linejoin:miter;stroke-miterlimit:10;stroke-opacity:1;stroke-dasharray:none"
       id="path172"
       inkscape:connector-curvature="0" /><path
       d="m 92.018454,127.05179 0.280182,0 0.185237,-0.0949 0.465418,0 0.280181,-0.0912 0.465419,0 0.185236,-0.094 0.7456,0 0.185236,-0.0949 0.560364,0 0.185236,-0.0903 0.465419,0 0.280181,-0.0949 0.7456,0 0.185237,-0.0912 0.465418,0 0.280182,-0.094 0.740945,0 0.280182,-0.0949 0.465418,0 0.185237,-0.0903 0.745598,0 0.28018,-0.0949 0.7456,0 0.28019,-0.0912 0.74094,0 0.28018,-0.094 0.7456,0 0.28018,-0.095 0.7456,0 0.27553,-0.0903 0.7456,0 0.28018,-0.0949 0.7456,0 0.28019,-0.0912 1.02112,0 0.28018,-0.094 1.02579,0 0.27552,-0.0949 0.84055,0 0.28018,-0.0903 1.02113,0 0.28018,-0.0949 1.30131,0 0.28018,-0.0912 1.11607,0 0.28019,-0.094 0.28018,0 M 79.6374,152.08942 92.018454,127.05179 m -18.616727,-34.816076 0.185237,0.465418 0.18989,0.375127 0.185237,0.465418 0.185236,0.370473 0.09494,0.465418 0.185237,0.465419 0.185236,0.374196 0.185237,0.465418 0.185236,0.371404 0.189891,0.465418 0.185236,0.370473 0.185237,0.465418 0.185236,0.375127 0.185237,0.465418 0.18989,0.370473 0.185237,0.465418 0.185236,0.374196 0.185236,0.465419 0.185237,0.371405 0.18989,0.37047 0.185237,0.46542 0.185236,0.37513 0.185237,0.46541 0.185236,0.37048 0.189891,0.46542 0.185236,0.37419 0.185237,0.37141 0.280181,0.46541 0.185237,0.37048 0.185236,0.37512 0.185237,0.46542 0.18989,0.37047 0.185237,0.3742 0.185236,0.46542 0.185237,0.3714 0.280181,0.37048 0.185237,0.37512 0.185236,0.46542 0.189891,0.37047 0.185236,0.3742 0.185237,0.3714 0.280182,0.46542 0.185236,0.37047 0.185236,0.37513 0.185237,0.37047 0.280182,0.3742 0.185236,0.3714 0.189891,0.46542 0.185236,0.37048 0.280182,0.37512 0.185236,0.37048 0.185237,0.37419 0.185236,0.37141 0.280182,0.37047 0.185236,0.37513 0.185237,0.37047 0.280181,0.37419 0.185237,0.37141 0.189891,0.37047 0.275527,0.37513 0.189891,0.37047 0.185236,0.3742 0.280182,0.3714 0.185236,0.37047 0.280182,0.37513 0.185237,0.37047 0.185236,0.3742 0.280182,0.3714 0.185236,0.37048 0.280182,0.37512 0.185236,0.37048 0.185237,0.37419 0.280181,0.27646 0.185237,0.37513 0.280182,0.37047 0.185236,0.3742 0.280182,0.3714 0.185236,0.37047 0.280182,0.28019 0.185236,0.37419 0.280182,0.37141 0.185237,0.37047 0.280181,0.28018 0.185237,0.3742 0.280182,0.3714 0.185236,0.28018 0.280182,0.37047 0.185236,0.3742 0.280182,0.27646 0.185236,0.37513 0.280182,0.37047"
       style="fill:none;stroke:#000000;stroke-width:1.6;stroke-linecap:butt;stroke-linejoin:miter;stroke-miterlimit:10;stroke-opacity:1;stroke-dasharray:3.2,3.2;stroke-dashoffset:0"
       id="path176"
       inkscape:connector-curvature="0" /><g
       style="font-size:12px;font-style:normal;font-variant:normal;font-weight:normal;font-stretch:normal;line-height:125%;letter-spacing:0px;word-spacing:0px;fill:#000000;fill-opacity:1;stroke:none;font-family:Arial;-inkscape-font-specification:Sans"
       id="flowRoot3223" /><g
       transform="matrix(0.8,0,0,-0.8,0,207.00004)"
       style="font-size:12px;font-style:normal;font-variant:normal;font-weight:normal;font-stretch:normal;line-height:125%;letter-spacing:0px;word-spacing:0px;fill:#000000;fill-opacity:1;stroke:none;font-family:Arial;-inkscape-font-specification:Sans"
       id="text3231"><path
         d="m 11.829102,224.16438 1.271484,0 2.173828,3.25196 2.185547,-3.25196 1.271484,0 -2.8125,4.20117 3,4.54688 -1.271484,0 -2.460938,-3.7207 -2.478515,3.7207 -1.277344,0 3.123047,-4.66992 -2.724609,-4.07813"
         style="font-family:Sans;-inkscape-font-specification:Sans"
         id="path3832" /></g><g
       transform="matrix(0.8,0,0,-0.8,0,207.00004)"
       style="font-size:12px;font-style:normal;font-variant:normal;font-weight:normal;font-stretch:normal;line-height:125%;letter-spacing:0px;word-spacing:0px;fill:#000000;fill-opacity:1;stroke:none;font-family:Arial;-inkscape-font-specification:Sans"
       id="text3235"><path
         d="m 282.54932,232.36679 1.27148,0 2.42578,3.59766 2.40821,-3.59766 1.27148,0 -3.09375,4.58203 0,4.16602 -1.18945,0 0,-4.16602 -3.09375,-4.58203"
         style="font-family:Sans;-inkscape-font-specification:Sans"
         id="path3835" /></g><g
       transform="scale(1,-1)"
       style="font-size:9.60000038px;font-style:normal;font-variant:normal;font-weight:normal;font-stretch:normal;line-height:125%;letter-spacing:0px;word-spacing:0px;fill:#000000;fill-opacity:1;stroke:none;font-family:Arial;-inkscape-font-specification:Sans"
       id="text3239"><path
         d="m 191.5379,-123.73935 4.09687,0 0,0.7875 -3.24375,3.77344 3.24375,0 0,0.68906 -4.21406,0 0,-0.7875 3.24375,-3.77344 -3.12656,0 0,-0.68906"
         style="font-family:Sans;-inkscape-font-specification:Sans"
         id="path3838" /></g><g
       transform="scale(1,-1)"
       style="font-size:9.60000038px;font-style:normal;font-variant:normal;font-weight:normal;font-stretch:normal;line-height:125%;letter-spacing:0px;word-spacing:0px;fill:#000000;fill-opacity:1;stroke:none;font-family:Arial;-inkscape-font-specification:Sans"
       id="text3243"><path
         d="m 175.87872,-133.20751 -1.89844,2.55469 1.99688,2.69531 -1.01719,0 -1.52812,-2.0625 -1.52813,2.0625 -1.01719,0 2.03907,-2.74688 -1.86563,-2.50312 1.01719,0 1.39219,1.87031 1.39218,-1.87031 1.01719,0"
         style="font-family:Sans;-inkscape-font-specification:Sans"
         id="path3841" /></g><g
       transform="scale(1,-1)"
       style="font-size:9.60000038px;font-style:normal;font-variant:normal;font-weight:normal;font-stretch:normal;line-height:125%;letter-spacing:0px;word-spacing:0px;fill:#000000;fill-opacity:1;stroke:none;font-family:Arial;-inkscape-font-specification:Sans"
       id="text3247"><path
         d="m 212.85504,-96.436786 c -0.24375,0.624999 -0.48125,1.032811 -0.7125,1.223438 -0.23125,0.190623 -0.54063,0.285935 -0.92813,0.285937 l -0.68906,0 0,-0.721875 0.50625,0 c 0.2375,-10e-7 0.42187,-0.05625 0.55313,-0.16875 0.13124,-0.112501 0.27656,-0.378126 0.43593,-0.796875 l 0.15469,-0.39375 -2.12344,-5.165629 0.91407,0 1.64062,4.106254 1.64063,-4.106254 0.91406,0 -2.30625,5.737504"
         style="font-family:Sans;-inkscape-font-specification:Sans"
         id="path3844" /></g><g
       transform="matrix(0.8,0,0,-0.8,0,207.00004)"
       style="font-size:12px;font-style:normal;font-variant:normal;font-weight:normal;font-stretch:normal;line-height:125%;letter-spacing:0px;word-spacing:0px;fill:#000000;fill-opacity:1;stroke:none;font-family:Arial;-inkscape-font-specification:Sans"
       id="text3251"><path
         d="m 189.73918,16.233501 6.87305,0 0,0.902344 -5.53125,6.84961 5.66601,0 0,0.996093 -7.14257,0 0,-0.902343 5.53125,-6.84961 -5.39649,0 0,-0.996094"
         style="font-family:Sans;-inkscape-font-specification:Sans"
         id="path3847" /></g><g
       transform="scale(1,-1)"
       style="font-size:9.60000038px;font-style:normal;font-variant:normal;font-weight:normal;font-stretch:normal;line-height:125%;letter-spacing:0px;word-spacing:0px;fill:#000000;fill-opacity:1;stroke:none;font-family:Arial;-inkscape-font-specification:Sans"
       id="text3255"><path
         d="m 90.264273,-115.85252 c -0.687503,1e-5 -1.234377,0.25626 -1.640625,0.76875 -0.403127,0.51251 -0.604689,1.21094 -0.604687,2.09531 -2e-6,0.88126 0.20156,1.57813 0.604687,2.09063 0.406248,0.5125 0.953122,0.76875 1.640625,0.76875 0.687496,0 1.231245,-0.25625 1.63125,-0.76875 0.403119,-0.5125 0.604682,-1.20937 0.604688,-2.09063 -6e-6,-0.88437 -0.201569,-1.5828 -0.604688,-2.09531 -0.400005,-0.51249 -0.943754,-0.76874 -1.63125,-0.76875 m 1.326563,6.22969 1.246875,1.36406 -1.14375,0 -1.035938,-1.12031 c -0.103129,0.006 -0.182816,0.0109 -0.239062,0.0141 -0.05313,0.003 -0.104692,0.005 -0.154688,0.005 -0.984378,0 -1.771877,-0.32813 -2.3625,-0.98438 -0.587501,-0.65937 -0.88125,-1.54062 -0.88125,-2.64375 0,-1.10624 0.293749,-1.98749 0.88125,-2.64375 0.590623,-0.65937 1.378122,-0.98905 2.3625,-0.98906 0.981245,10e-6 1.76562,0.32969 2.353125,0.98906 0.587494,0.65626 0.881243,1.53751 0.88125,2.64375 -7e-6,0.81251 -0.164069,1.50782 -0.492187,2.08594 -0.325006,0.57813 -0.796881,1.00469 -1.415625,1.27969"
         style="font-family:Sans;-inkscape-font-specification:Sans"
         id="path3850" /></g><g
       transform="scale(1,-1)"
       style="font-size:9.60000038px;font-style:normal;font-variant:normal;font-weight:normal;font-stretch:normal;line-height:125%;letter-spacing:0px;word-spacing:0px;fill:#000000;fill-opacity:1;stroke:none;font-family:Arial;-inkscape-font-specification:Sans"
       id="text3259"><path
         d="m 179.59431,-85.404097 0,2.629687 1.19062,0 c 0.44063,4e-6 0.78125,-0.114058 1.02188,-0.342187 0.24062,-0.228121 0.36093,-0.553121 0.36094,-0.975 -1e-5,-0.418745 -0.12032,-0.742182 -0.36094,-0.970313 -0.24063,-0.228119 -0.58125,-0.342181 -1.02188,-0.342187 l -1.19062,0 m -0.94688,-0.778125 2.1375,0 c 0.78437,7e-6 1.37656,0.178132 1.77657,0.534375 0.40312,0.353131 0.60468,0.87188 0.60468,1.55625 0,0.690629 -0.20156,1.212504 -0.60468,1.565625 -0.40001,0.353128 -0.9922,0.52969 -1.77657,0.529687 l -1.19062,0 0,2.812501 -0.94688,0 0,-6.998438"
         style="font-family:Sans;-inkscape-font-specification:Sans"
         id="path3853" /></g><g
       transform="matrix(0.8,0,0,-0.8,0,207.00004)"
       style="font-size:12px;font-style:normal;font-variant:normal;font-weight:normal;font-stretch:normal;line-height:125%;letter-spacing:0px;word-spacing:0px;fill:#000000;fill-opacity:1;stroke:none;font-family:Arial;-inkscape-font-specification:Sans"
       id="text3263"><path
         d="m 190.25478,191.90044 0,-6.22266 0.94921,0 0,0.94336 c 0.24219,-0.4414 0.46485,-0.73242 0.66797,-0.87305 0.20703,-0.14062 0.43359,-0.21093 0.67969,-0.21093 0.35547,0 0.71679,0.11328 1.08399,0.33984 l -0.36329,0.97851 c -0.25781,-0.15233 -0.51562,-0.22851 -0.77343,-0.22851 -0.23047,0 -0.43751,0.0703 -0.6211,0.21094 -0.18359,0.13672 -0.31445,0.32813 -0.39258,0.57422 -0.11718,0.375 -0.17578,0.78516 -0.17578,1.23046 l 0,3.25782 -1.05468,0"
         style=""
         id="path3856" /></g><g
       transform="scale(1,-1)"
       style="font-size:7.19999981px;font-style:normal;font-variant:normal;font-weight:normal;font-stretch:normal;line-height:125%;letter-spacing:0px;word-spacing:0px;fill:#000000;fill-opacity:1;stroke:none;font-family:sans;-inkscape-font-specification:sans"
       id="text3036"><path
         d="m 126.47794,-95.657237 c 0.14947,0.729167 0.38281,1.09375 0.7,1.09375 0.21145,0 0.4539,-0.209635 0.72734,-0.628906 l 0.72734,0 c -0.21875,0.371875 -0.45573,0.654427 -0.71093,0.847656 -0.27709,0.207812 -0.54323,0.311718 -0.79844,0.311719 -0.56875,-10e-7 -0.96797,-0.253386 -1.19766,-0.760157 l -0.41015,0.601563 -0.85313,0 c 0.39375,-0.535937 0.73646,-1.053645 1.02813,-1.553125 -0.0365,-0.284373 -0.0547,-0.581508 -0.0547,-0.891406 0,-0.554164 0.0565,-1.10833 0.16953,-1.6625 0.42656,-2.081767 0.82943,-3.335927 1.20859,-3.762497 0.2625,-0.29531 0.61797,-0.44296 1.06641,-0.44297 0.45573,1e-5 0.68359,0.31537 0.68359,0.94609 -0.004,0.28438 -0.0383,0.5961 -0.1039,0.93516 -0.26251,1.389065 -0.98985,3.044272 -2.18203,4.965623 m -0.005,-1.432813 c 0.68177,-1.268746 1.12656,-2.40989 1.33437,-3.42344 0.10938,-0.53593 0.16406,-0.87317 0.16407,-1.01172 -1e-5,-0.25155 -0.0456,-0.37733 -0.13672,-0.37734 -0.3974,0.3172 -0.77292,1.42006 -1.12657,3.308594 -0.0984,0.52865 -0.17682,1.029951 -0.23515,1.503906"
         style="font-size:11.19999981px"
         id="path3859" /></g><g
       style="font-size:9px;font-style:normal;font-variant:normal;font-weight:normal;font-stretch:normal;line-height:125%;letter-spacing:0px;word-spacing:0px;fill:#000000;fill-opacity:1;stroke:none;font-family:sans;-inkscape-font-specification:sans"
       id="flowRoot3040" /><g
       transform="scale(1,-1)"
       style="font-size:7.19999981px;font-style:normal;font-variant:normal;font-weight:normal;font-stretch:normal;line-height:125%;letter-spacing:0px;word-spacing:0px;fill:#000000;fill-opacity:1;stroke:none;font-family:sans;-inkscape-font-specification:sans"
       id="text3822"><path
         d="m 131.9633,-13.897437 2.42344,6.4734377 -0.91407,0 -1.47187,-3.8812497 -1.80938,3.8812497 -0.91406,0 2.30156,-5.0343757 -0.34687,-0.928125 c -0.14688,-0.393743 -0.3875,-0.590618 -0.72188,-0.590625 l -0.45,0 0,-0.740625 0.54844,0.0094 c 0.70625,0.0094 1.15781,0.279695 1.35469,0.810938"
         style="font-size:9.60000038px"
         id="path3863" /></g><g
       transform="scale(1,-1)"
       style="font-size:7.19999981px;font-style:normal;font-variant:normal;font-weight:normal;font-stretch:normal;line-height:125%;letter-spacing:0px;word-spacing:0px;fill:#000000;fill-opacity:1;stroke:none;font-family:sans;-inkscape-font-specification:sans"
       id="text3826"><path
         d="m 163.19653,-39.309646 0,1.935937 c 0.62187,6e-6 1.14062,0.239068 1.55625,0.717188 0.42812,0.487504 0.64218,1.160941 0.64219,2.020313 -1e-5,0.859376 -0.21407,1.532813 -0.64219,2.020312 -0.41563,0.478125 -0.93438,0.717188 -1.55625,0.717188 l 0,1.879687 -0.85781,0 0,-1.879687 c -0.62188,0 -1.14219,-0.239063 -1.56094,-0.717188 -0.425,-0.487499 -0.6375,-1.160936 -0.6375,-2.020312 0,-0.859372 0.2125,-1.532809 0.6375,-2.020313 0.41875,-0.47812 0.93906,-0.717182 1.56094,-0.717188 l 0,-1.935937 0.85781,0 m 0,6.642188 c 0.35312,0 0.65,-0.160937 0.89063,-0.482813 0.26249,-0.359373 0.3953,-0.854685 0.39843,-1.485937 0.003,-0.624997 -0.12969,-1.120309 -0.39843,-1.485938 -0.24063,-0.321871 -0.53751,-0.482808 -0.89063,-0.482813 l 0,3.937501 m -0.85781,0 0,-3.937501 c -0.35313,5e-6 -0.64844,0.160942 -0.88594,0.482813 -0.27188,0.365629 -0.40625,0.860941 -0.40312,1.485938 0.003,0.631252 0.13749,1.126564 0.40312,1.485937 0.2375,0.321876 0.53281,0.482813 0.88594,0.482813"
         style="font-size:9.60000038px"
         id="path3866" /></g></g></svg>