<?xml version="1.0" encoding="utf-8" standalone="no"?>
<!DOCTYPE svg PUBLIC "-//W3C//DTD SVG 1.1//EN"
  "http://www.w3.org/Graphics/SVG/1.1/DTD/svg11.dtd">
<!-- Created with matplotlib (http://matplotlib.org/) -->
<svg height="288pt" version="1.1" viewBox="0 0 239 288" width="239pt" xmlns="http://www.w3.org/2000/svg" xmlns:xlink="http://www.w3.org/1999/xlink">
 <defs>
  <style type="text/css">
*{stroke-linecap:butt;stroke-linejoin:round;}
  </style>
 </defs>
 <g id="figure_1">
  <g id="patch_1">
   <path d="M 0 288 
L 239.76 288 
L 239.76 0 
L 0 0 
z
" style="fill:#ffffff;"/>
  </g>
  <g id="axes_1">
   <g id="patch_2">
    <path d="M 40.090809 130.279888 
L 232.152309 130.279888 
L 232.152309 5 
L 40.090809 5 
z
" style="fill:#ffffff;"/>
   </g>
   <g id="matplotlib.axis_1">
    <g id="xtick_1">
     <g id="line2d_1">
      <path clip-path="url(#pd924f6b2c8)" d="M 40.090809 130.279888 
L 40.090809 5 
" style="fill:none;stroke:#aeaeae;stroke-linecap:square;stroke-width:0.5;"/>
     </g>
     <g id="line2d_2">
      <defs>
       <path d="M 0 0 
L 0 2 
" id="mca98f1c5a6" style="stroke:#000000;stroke-width:0.8;"/>
      </defs>
      <g>
       <use style="stroke:#000000;stroke-width:0.8;" x="40.090809" xlink:href="#mca98f1c5a6" y="130.279888"/>
      </g>
     </g>
    </g>
    <g id="xtick_2">
     <g id="line2d_3">
      <path clip-path="url(#pd924f6b2c8)" d="M 59.296959 130.279888 
L 59.296959 5 
" style="fill:none;stroke:#aeaeae;stroke-linecap:square;stroke-width:0.5;"/>
     </g>
     <g id="line2d_4">
      <g>
       <use style="stroke:#000000;stroke-width:0.8;" x="59.296959" xlink:href="#mca98f1c5a6" y="130.279888"/>
      </g>
     </g>
    </g>
    <g id="xtick_3">
     <g id="line2d_5">
      <path clip-path="url(#pd924f6b2c8)" d="M 78.503109 130.279888 
L 78.503109 5 
" style="fill:none;stroke:#aeaeae;stroke-linecap:square;stroke-width:0.5;"/>
     </g>
     <g id="line2d_6">
      <g>
       <use style="stroke:#000000;stroke-width:0.8;" x="78.503109" xlink:href="#mca98f1c5a6" y="130.279888"/>
      </g>
     </g>
    </g>
    <g id="xtick_4">
     <g id="line2d_7">
      <path clip-path="url(#pd924f6b2c8)" d="M 97.709259 130.279888 
L 97.709259 5 
" style="fill:none;stroke:#aeaeae;stroke-linecap:square;stroke-width:0.5;"/>
     </g>
     <g id="line2d_8">
      <g>
       <use style="stroke:#000000;stroke-width:0.8;" x="97.709259" xlink:href="#mca98f1c5a6" y="130.279888"/>
      </g>
     </g>
    </g>
    <g id="xtick_5">
     <g id="line2d_9">
      <path clip-path="url(#pd924f6b2c8)" d="M 116.915409 130.279888 
L 116.915409 5 
" style="fill:none;stroke:#aeaeae;stroke-linecap:square;stroke-width:0.5;"/>
     </g>
     <g id="line2d_10">
      <g>
       <use style="stroke:#000000;stroke-width:0.8;" x="116.915409" xlink:href="#mca98f1c5a6" y="130.279888"/>
      </g>
     </g>
    </g>
    <g id="xtick_6">
     <g id="line2d_11">
      <path clip-path="url(#pd924f6b2c8)" d="M 136.121559 130.279888 
L 136.121559 5 
" style="fill:none;stroke:#aeaeae;stroke-linecap:square;stroke-width:0.5;"/>
     </g>
     <g id="line2d_12">
      <g>
       <use style="stroke:#000000;stroke-width:0.8;" x="136.121559" xlink:href="#mca98f1c5a6" y="130.279888"/>
      </g>
     </g>
    </g>
    <g id="xtick_7">
     <g id="line2d_13">
      <path clip-path="url(#pd924f6b2c8)" d="M 155.327709 130.279888 
L 155.327709 5 
" style="fill:none;stroke:#aeaeae;stroke-linecap:square;stroke-width:0.5;"/>
     </g>
     <g id="line2d_14">
      <g>
       <use style="stroke:#000000;stroke-width:0.8;" x="155.327709" xlink:href="#mca98f1c5a6" y="130.279888"/>
      </g>
     </g>
    </g>
    <g id="xtick_8">
     <g id="line2d_15">
      <path clip-path="url(#pd924f6b2c8)" d="M 174.533859 130.279888 
L 174.533859 5 
" style="fill:none;stroke:#aeaeae;stroke-linecap:square;stroke-width:0.5;"/>
     </g>
     <g id="line2d_16">
      <g>
       <use style="stroke:#000000;stroke-width:0.8;" x="174.533859" xlink:href="#mca98f1c5a6" y="130.279888"/>
      </g>
     </g>
    </g>
    <g id="xtick_9">
     <g id="line2d_17">
      <path clip-path="url(#pd924f6b2c8)" d="M 193.740009 130.279888 
L 193.740009 5 
" style="fill:none;stroke:#aeaeae;stroke-linecap:square;stroke-width:0.5;"/>
     </g>
     <g id="line2d_18">
      <g>
       <use style="stroke:#000000;stroke-width:0.8;" x="193.740009" xlink:href="#mca98f1c5a6" y="130.279888"/>
      </g>
     </g>
    </g>
    <g id="xtick_10">
     <g id="line2d_19">
      <path clip-path="url(#pd924f6b2c8)" d="M 212.946159 130.279888 
L 212.946159 5 
" style="fill:none;stroke:#aeaeae;stroke-linecap:square;stroke-width:0.5;"/>
     </g>
     <g id="line2d_20">
      <g>
       <use style="stroke:#000000;stroke-width:0.8;" x="212.946159" xlink:href="#mca98f1c5a6" y="130.279888"/>
      </g>
     </g>
    </g>
    <g id="xtick_11">
     <g id="line2d_21">
      <path clip-path="url(#pd924f6b2c8)" d="M 232.152309 130.279888 
L 232.152309 5 
" style="fill:none;stroke:#aeaeae;stroke-linecap:square;stroke-width:0.5;"/>
     </g>
     <g id="line2d_22">
      <g>
       <use style="stroke:#000000;stroke-width:0.8;" x="232.152309" xlink:href="#mca98f1c5a6" y="130.279888"/>
      </g>
     </g>
    </g>
   </g>
   <g id="matplotlib.axis_2">
    <g id="ytick_1">
     <g id="line2d_23">
      <path clip-path="url(#pd924f6b2c8)" d="M 40.090809 110.442599 
L 232.152309 110.442599 
" style="fill:none;stroke:#aeaeae;stroke-linecap:square;stroke-width:0.5;"/>
     </g>
     <g id="line2d_24">
      <defs>
       <path d="M 0 0 
L -2 0 
" id="m624c7211be" style="stroke:#000000;stroke-width:0.8;"/>
      </defs>
      <g>
       <use style="stroke:#000000;stroke-width:0.8;" x="40.090809" xlink:href="#m624c7211be" y="110.442599"/>
      </g>
     </g>
     <g id="text_1">
      <!-- $10^{-1}$ -->
      <defs>
       <path d="M 26.59375 63.40625 
C 26.59375 65.5 26.5 65.5 25.09375 65.5 
C 21.203125 61.1875 15.296875 59.796875 9.703125 59.796875 
C 9.40625 59.796875 8.90625 59.796875 8.796875 59.5 
C 8.703125 59.296875 8.703125 59.09375 8.703125 57 
C 11.796875 57 17 57.59375 21 59.984375 
L 21 7.203125 
C 21 3.6875 20.796875 2.5 12.203125 2.5 
L 9.203125 2.5 
L 9.203125 0 
C 14 0 19 0 23.796875 0 
C 28.59375 0 33.59375 0 38.40625 0 
L 38.40625 2.5 
L 35.40625 2.5 
C 26.796875 2.5 26.59375 3.59375 26.59375 7.15625 
z
" id="CMR17-49"/>
       <path d="M 42 31.640625 
C 42 37.75 41.90625 48.125 37.703125 56.109375 
C 34 63.109375 28.09375 65.59375 22.90625 65.59375 
C 18.09375 65.59375 12 63.40625 8.203125 56.203125 
C 4.203125 48.71875 3.796875 39.4375 3.796875 31.640625 
C 3.796875 25.953125 3.90625 17.28125 7 9.671875 
C 11.296875 -0.609375 19 -2 22.90625 -2 
C 27.5 -2 34.5 -0.109375 38.59375 9.375 
C 41.59375 16.28125 42 24.359375 42 31.640625 
M 22.90625 -0.40625 
C 16.5 -0.40625 12.703125 5.078125 11.296875 12.6875 
C 10.203125 18.5625 10.203125 27.15625 10.203125 32.75 
C 10.203125 40.4375 10.203125 46.828125 11.5 52.921875 
C 13.40625 61.390625 19 64 22.90625 64 
C 27 64 32.296875 61.296875 34.203125 53.125 
C 35.5 47.4375 35.59375 40.734375 35.59375 32.75 
C 35.59375 26.25 35.59375 18.265625 34.40625 12.375 
C 32.296875 1.484375 26.40625 -0.40625 22.90625 -0.40625 
" id="CMR17-48"/>
       <path d="M 65.90625 23 
C 67.59375 23 69.40625 23 69.40625 25 
C 69.40625 27 67.59375 27 65.90625 27 
L 11.796875 27 
C 10.09375 27 8.296875 27 8.296875 25 
C 8.296875 23 10.09375 23 11.796875 23 
z
" id="CMSY10-0"/>
      </defs>
      <g transform="translate(15.966376 113.555924)scale(0.09 -0.09)">
       <use transform="scale(0.996264)" xlink:href="#CMR17-49"/>
       <use transform="translate(45.690477 0)scale(0.996264)" xlink:href="#CMR17-48"/>
       <use transform="translate(91.380954 36.153639)scale(0.697382)" xlink:href="#CMSY10-0"/>
       <use transform="translate(145.621947 36.153639)scale(0.697382)" xlink:href="#CMR17-49"/>
      </g>
     </g>
    </g>
    <g id="ytick_2">
     <g id="line2d_25">
      <path clip-path="url(#pd924f6b2c8)" d="M 40.090809 75.198399 
L 232.152309 75.198399 
" style="fill:none;stroke:#aeaeae;stroke-linecap:square;stroke-width:0.5;"/>
     </g>
     <g id="line2d_26">
      <g>
       <use style="stroke:#000000;stroke-width:0.8;" x="40.090809" xlink:href="#m624c7211be" y="75.198399"/>
      </g>
     </g>
     <g id="text_2">
      <!-- $10^{1}$ -->
      <g transform="translate(21.722516 78.311724)scale(0.09 -0.09)">
       <use transform="scale(0.996264)" xlink:href="#CMR17-49"/>
       <use transform="translate(45.690477 0)scale(0.996264)" xlink:href="#CMR17-48"/>
       <use transform="translate(91.380954 36.153639)scale(0.697382)" xlink:href="#CMR17-49"/>
      </g>
     </g>
    </g>
    <g id="ytick_3">
     <g id="line2d_27">
      <path clip-path="url(#pd924f6b2c8)" d="M 40.090809 39.954198 
L 232.152309 39.954198 
" style="fill:none;stroke:#aeaeae;stroke-linecap:square;stroke-width:0.5;"/>
     </g>
     <g id="line2d_28">
      <g>
       <use style="stroke:#000000;stroke-width:0.8;" x="40.090809" xlink:href="#m624c7211be" y="39.954198"/>
      </g>
     </g>
     <g id="text_3">
      <!-- $10^{3}$ -->
      <defs>
       <path d="M 22.09375 33.703125 
C 31 33.703125 34.90625 25.96875 34.90625 17.03125 
C 34.90625 5 28.5 0.390625 22.703125 0.390625 
C 17.40625 0.390625 8.796875 3.03125 6.09375 10.828125 
C 6.59375 10.625 7.09375 10.625 7.59375 10.625 
C 10 10.625 11.796875 12.21875 11.796875 14.8125 
C 11.796875 17.703125 9.59375 19 7.59375 19 
C 5.90625 19 3.296875 18.203125 3.296875 14.46875 
C 3.296875 5.234375 12.296875 -2 22.90625 -2 
C 34 -2 42.5 6.71875 42.5 16.953125 
C 42.5 26.671875 34.5 33.703125 25 34.796875 
C 32.59375 36.375 39.90625 43.0625 39.90625 52.015625 
C 39.90625 59.6875 32 65.296875 23 65.296875 
C 13.90625 65.296875 5.90625 59.828125 5.90625 52.015625 
C 5.90625 48.59375 8.5 48 9.796875 48 
C 11.90625 48 13.703125 49.296875 13.703125 51.890625 
C 13.703125 54.46875 11.90625 55.765625 9.796875 55.765625 
C 9.40625 55.765625 8.90625 55.765625 8.5 55.578125 
C 11.40625 61.859375 19.296875 63 22.796875 63 
C 26.296875 63 32.90625 61.328125 32.90625 51.875 
C 32.90625 49.109375 32.5 44.1875 29.09375 39.84375 
C 26.09375 36 22.703125 36 19.40625 35.6875 
C 18.90625 35.6875 16.59375 35.453125 16.203125 35.453125 
C 15.5 35.359375 15.09375 35.265625 15.09375 34.5 
C 15.09375 33.796875 15.203125 33.703125 17.203125 33.703125 
z
" id="CMR17-51"/>
      </defs>
      <g transform="translate(21.722516 43.067523)scale(0.09 -0.09)">
       <use transform="scale(0.996264)" xlink:href="#CMR17-49"/>
       <use transform="translate(45.690477 0)scale(0.996264)" xlink:href="#CMR17-48"/>
       <use transform="translate(91.380954 36.153639)scale(0.697382)" xlink:href="#CMR17-51"/>
      </g>
     </g>
    </g>
    <g id="ytick_4">
     <g id="line2d_29">
      <defs>
       <path d="M 0 0 
L -2 0 
" id="ma056ffa0c4" style="stroke:#000000;stroke-width:0.6;"/>
      </defs>
      <g>
       <use style="stroke:#000000;stroke-width:0.6;" x="40.090809" xlink:href="#ma056ffa0c4" y="129.772458"/>
      </g>
     </g>
    </g>
    <g id="ytick_5">
     <g id="line2d_30">
      <g>
       <use style="stroke:#000000;stroke-width:0.6;" x="40.090809" xlink:href="#ma056ffa0c4" y="105.137819"/>
      </g>
     </g>
    </g>
    <g id="ytick_6">
     <g id="line2d_31">
      <g>
       <use style="stroke:#000000;stroke-width:0.6;" x="40.090809" xlink:href="#ma056ffa0c4" y="99.833038"/>
      </g>
     </g>
    </g>
    <g id="ytick_7">
     <g id="line2d_32">
      <g>
       <use style="stroke:#000000;stroke-width:0.6;" x="40.090809" xlink:href="#ma056ffa0c4" y="96.72994"/>
      </g>
     </g>
    </g>
    <g id="ytick_8">
     <g id="line2d_33">
      <g>
       <use style="stroke:#000000;stroke-width:0.6;" x="40.090809" xlink:href="#ma056ffa0c4" y="94.528257"/>
      </g>
     </g>
    </g>
    <g id="ytick_9">
     <g id="line2d_34">
      <g>
       <use style="stroke:#000000;stroke-width:0.6;" x="40.090809" xlink:href="#ma056ffa0c4" y="69.893618"/>
      </g>
     </g>
    </g>
    <g id="ytick_10">
     <g id="line2d_35">
      <g>
       <use style="stroke:#000000;stroke-width:0.6;" x="40.090809" xlink:href="#ma056ffa0c4" y="64.588837"/>
      </g>
     </g>
    </g>
    <g id="ytick_11">
     <g id="line2d_36">
      <g>
       <use style="stroke:#000000;stroke-width:0.6;" x="40.090809" xlink:href="#ma056ffa0c4" y="61.485739"/>
      </g>
     </g>
    </g>
    <g id="ytick_12">
     <g id="line2d_37">
      <g>
       <use style="stroke:#000000;stroke-width:0.6;" x="40.090809" xlink:href="#ma056ffa0c4" y="59.284056"/>
      </g>
     </g>
    </g>
    <g id="ytick_13">
     <g id="line2d_38">
      <g>
       <use style="stroke:#000000;stroke-width:0.6;" x="40.090809" xlink:href="#ma056ffa0c4" y="34.649417"/>
      </g>
     </g>
    </g>
    <g id="ytick_14">
     <g id="line2d_39">
      <g>
       <use style="stroke:#000000;stroke-width:0.6;" x="40.090809" xlink:href="#ma056ffa0c4" y="29.344637"/>
      </g>
     </g>
    </g>
    <g id="ytick_15">
     <g id="line2d_40">
      <g>
       <use style="stroke:#000000;stroke-width:0.6;" x="40.090809" xlink:href="#ma056ffa0c4" y="26.241539"/>
      </g>
     </g>
    </g>
    <g id="ytick_16">
     <g id="line2d_41">
      <g>
       <use style="stroke:#000000;stroke-width:0.6;" x="40.090809" xlink:href="#ma056ffa0c4" y="24.039856"/>
      </g>
     </g>
    </g>
    <g id="text_4">
     <!-- Difference (\%) -->
     <defs>
      <path d="M 5.203125 68 
L 5.203125 65.40625 
C 12.09375 65.40625 13.203125 65.40625 13.203125 60.9375 
L 13.203125 7.0625 
C 13.203125 2.59375 12.09375 2.59375 5.203125 2.59375 
L 5.203125 0 
L 37 0 
C 53.09375 0 66 14.734375 66 33.453125 
C 66 52.28125 53.296875 68 37 68 
z
M 23.796875 2.59375 
C 19.796875 2.59375 19.59375 3.078125 19.59375 6.46875 
L 19.59375 61.53125 
C 19.59375 64.921875 19.796875 65.40625 23.796875 65.40625 
L 35 65.40625 
C 43.296875 65.40625 58.59375 60.53125 58.59375 33.453125 
C 58.59375 19.40625 54.5 13.734375 52.59375 11.046875 
C 50.203125 7.96875 44.5 2.59375 35 2.59375 
z
" id="CMR17-68"/>
      <path d="M 15.5 61.078125 
C 15.5 63.265625 13.703125 65.15625 11.40625 65.15625 
C 9.203125 65.15625 7.296875 63.375 7.296875 61.078125 
C 7.296875 58.890625 9.09375 57 11.40625 57 
C 13.59375 57 15.5 58.796875 15.5 61.078125 
M 3.796875 42.28125 
L 3.796875 39.703125 
C 9.40625 39.703125 10.203125 39.09375 10.203125 34.328125 
L 10.203125 6.671875 
C 10.203125 2.875 9.796875 2.390625 3.40625 2.390625 
L 3.40625 -0.203125 
C 5.796875 0 10.09375 0 12.59375 0 
C 15 0 19.09375 0 21.40625 -0.203125 
L 21.40625 2.390625 
C 15.5 2.390625 15.296875 2.984375 15.296875 6.5625 
L 15.296875 43.375 
z
" id="CMR17-105"/>
      <path d="M 39.90625 40 
L 51.296875 40 
L 51.296875 42.578125 
L 39.703125 42.578125 
L 39.703125 54.59375 
C 39.703125 62.84375 43.90625 68 48.203125 68 
C 49.5 68 51 67.609375 52 66.90625 
C 51.203125 66.703125 49.09375 66.015625 49.09375 63.546875 
C 49.09375 60.953125 51.09375 60.15625 52.5 60.15625 
C 53.90625 60.15625 55.90625 60.953125 55.90625 63.546875 
C 55.90625 67.3125 52.296875 69.59375 48.296875 69.59375 
C 44.40625 69.59375 41.203125 67.703125 38.703125 65.328125 
C 36.40625 68.59375 32.59375 69.59375 28.703125 69.59375 
C 20.90625 69.59375 9.90625 65.125 9.90625 54.203125 
L 9.90625 42.578125 
L 1.90625 42.578125 
L 1.90625 40 
L 9.90625 40 
L 9.90625 6.671875 
C 9.90625 2.875 9.5 2.390625 3.09375 2.390625 
L 3.09375 -0.203125 
C 5.5 0 9.90625 0 12.40625 0 
C 15 0 19.40625 0 21.796875 -0.203125 
L 21.796875 2.390625 
C 15.40625 2.390625 15 2.78125 15 6.671875 
L 15 40 
L 34.796875 40 
L 34.796875 6.671875 
C 34.796875 2.875 34.40625 2.390625 28 2.390625 
L 28 -0.203125 
C 30.40625 0 35 0 37.59375 0 
C 40.5 0 45.59375 0 48.296875 -0.203125 
L 48.296875 2.390625 
C 41.09375 2.390625 39.90625 2.390625 39.90625 6.859375 
z
M 14.796875 42.578125 
L 14.796875 54.203125 
C 14.796875 63.234375 21.796875 68 28.5 68 
C 30 68 33.90625 67.6875 36.296875 65.421875 
C 34.5 65.421875 32.796875 64.625 32.796875 62.140625 
C 32.796875 59.5625 35.09375 58.859375 35.296875 58.859375 
C 34.796875 57.0625 34.796875 55.09375 34.796875 54.390625 
L 34.796875 42.578125 
z
" id="CMR17-11"/>
      <path d="M 38.09375 23 
C 38.5 23.40625 38.5 23.609375 38.5 24.625 
C 38.5 34.96875 33.09375 44 21.703125 44 
C 11.09375 44 2.703125 33.890625 2.703125 21.609375 
C 2.703125 8.609375 12.203125 -1 22.796875 -1 
C 34 -1 38.40625 9.484375 38.40625 11.5625 
C 38.40625 12.25 37.796875 12.25 37.59375 12.25 
C 36.90625 12.25 36.796875 12.046875 36.40625 10.875 
C 34.203125 4.140625 28.703125 0.796875 23.5 0.796875 
C 19.203125 0.796875 14.90625 3.171875 12.203125 7.5 
C 9.09375 12.546875 9.09375 18.375 9.09375 23 
z
M 9.203125 24.5 
C 9.90625 39.140625 17.59375 42.40625 21.59375 42.40625 
C 28.40625 42.40625 33 35.890625 33.09375 24.5 
z
" id="CMR17-101"/>
      <path d="M 15 23.390625 
C 15 33 19.09375 42 26.59375 42 
C 27.296875 42 28 41.90625 28.703125 41.59375 
C 28.703125 41.59375 26.5 40.890625 26.5 38.3125 
C 26.5 35.90625 28.40625 34.90625 29.90625 34.90625 
C 31.09375 34.90625 33.296875 35.609375 33.296875 38.40625 
C 33.296875 41.609375 30.09375 43.59375 26.703125 43.59375 
C 19.09375 43.59375 15.796875 36.203125 14.796875 32.703125 
L 14.703125 32.703125 
L 14.703125 43.59375 
L 3.09375 42.5 
L 3.09375 39.90625 
C 9 39.90625 9.90625 39.296875 9.90625 34.5 
L 9.90625 6.6875 
C 9.90625 2.875 9.5 2.390625 3.09375 2.390625 
L 3.09375 -0.203125 
C 5.5 0 10.09375 0 12.703125 0 
C 15.59375 0 20.703125 0 23.40625 -0.203125 
L 23.40625 2.390625 
C 16.203125 2.390625 15 2.390625 15 6.875 
z
" id="CMR17-114"/>
      <path d="M 41.5 30.203125 
C 41.5 35.296875 40.5 43.59375 28.703125 43.59375 
C 20.796875 43.59375 16.703125 37.5 15.203125 33.5 
L 15.09375 33.5 
L 15.09375 43.59375 
L 3.296875 42.5 
L 3.296875 39.90625 
C 9.203125 39.90625 10.09375 39.296875 10.09375 34.5 
L 10.09375 6.6875 
C 10.09375 2.875 9.703125 2.390625 3.296875 2.390625 
L 3.296875 -0.203125 
C 5.703125 0 10.09375 0 12.703125 0 
C 15.296875 0 19.796875 0 22.203125 -0.203125 
L 22.203125 2.390625 
C 15.796875 2.390625 15.40625 2.78125 15.40625 6.6875 
L 15.40625 25.90625 
C 15.40625 35.109375 21 42 28 42 
C 35.40625 42 36.203125 35.40625 36.203125 30.59375 
L 36.203125 6.6875 
C 36.203125 2.875 35.796875 2.390625 29.40625 2.390625 
L 29.40625 -0.203125 
C 31.796875 0 36.203125 0 38.796875 0 
C 41.40625 0 45.90625 0 48.296875 -0.203125 
L 48.296875 2.390625 
C 41.90625 2.390625 41.5 2.78125 41.5 6.6875 
z
" id="CMR17-110"/>
      <path d="M 34.90625 35 
C 33 35 30.203125 35 30.203125 31.515625 
C 30.203125 28.71875 32.5 27.921875 33.796875 27.921875 
C 34.5 27.921875 37.40625 28.234375 37.40625 31.625 
C 37.40625 38.546875 30.59375 43.796875 22.90625 43.796875 
C 12.296875 43.796875 3.296875 34.03125 3.296875 21.296875 
C 3.296875 8.0625 12.703125 -1 22.90625 -1 
C 35.296875 -1 38.40625 10.578125 38.40625 11.6875 
C 38.40625 12.09375 38.296875 12.390625 37.59375 12.390625 
C 36.90625 12.390625 36.796875 12.296875 36.40625 10.984375 
C 33.796875 2.8125 28.09375 0.796875 23.796875 0.796875 
C 17.40625 0.796875 9.703125 6.671875 9.703125 21.390625 
C 9.703125 36.53125 17.09375 42 23 42 
C 26.90625 42 32.703125 40.203125 34.90625 35 
" id="CMR17-99"/>
      <path d="M 30.59375 -24.390625 
C 30.59375 -24.296875 30.59375 -24.09375 30.296875 -23.796875 
C 25.703125 -19.125 13.40625 -6.359375 13.40625 24.703125 
C 13.40625 55.765625 25.5 68.421875 30.40625 73.390625 
C 30.40625 73.5 30.59375 73.703125 30.59375 74 
C 30.59375 74.296875 30.296875 74.5 29.90625 74.5 
C 28.796875 74.5 20.296875 67.125 15.40625 56.15625 
C 10.40625 45.109375 9 34.359375 9 24.8125 
C 9 17.625 9.703125 5.484375 15.703125 -7.359375 
C 20.5 -17.734375 28.703125 -25 29.90625 -25 
C 30.40625 -25 30.59375 -24.796875 30.59375 -24.390625 
" id="CMR17-40"/>
      <path d="M 72.5 14.984375 
C 72.5 26.53125 66.796875 35 60.09375 35 
C 53.296875 35 46.40625 27.125 46.40625 14.984375 
C 46.40625 2.859375 53.203125 -5 60.09375 -5 
C 66.796875 -5 72.5 3.359375 72.5 14.984375 
M 60.203125 -3.40625 
C 57.59375 -3.40625 51.09375 -1.03125 51.09375 14.984375 
C 51.09375 31.109375 57.59375 33.40625 60.203125 33.40625 
C 65.703125 33.40625 70.703125 25.53125 70.703125 14.984375 
C 70.703125 4.453125 65.703125 -3.40625 60.203125 -3.40625 
M 63.796875 71.515625 
C 64.5 72.609375 64.59375 72.703125 64.59375 73.203125 
C 64.59375 74.390625 63.703125 75 62.90625 75 
C 61.90625 75 61.5 74.3125 60.796875 73.53125 
C 55 65.46875 47 64.59375 42.90625 64.59375 
C 32.90625 64.59375 26.796875 70.21875 24.90625 71.984375 
C 23.59375 73.15625 21.703125 75 18.296875 75 
C 11.5 75 4.59375 67.125 4.59375 54.984375 
C 4.59375 42.859375 11.40625 35 18.296875 35 
C 25 35 30.703125 43.40625 30.703125 55.109375 
C 30.703125 62.015625 28.59375 66.71875 28.296875 67.3125 
C 34.40625 63.5 40.40625 63 43 63 
C 49.40625 63 54 65.359375 56.5 67.015625 
L 56.59375 66.921875 
L 13.40625 -1.3125 
C 12.5 -2.71875 12.5 -2.921875 12.5 -3.21875 
C 12.5 -4.3125 13.40625 -5 14.296875 -5 
C 15.203125 -5 15.5 -4.515625 16.203125 -3.40625 
z
M 18.40625 36.59375 
C 15.796875 36.59375 9.296875 38.96875 9.296875 54.984375 
C 9.296875 71.109375 15.796875 73.40625 18.40625 73.40625 
C 23.90625 73.40625 28.90625 65.53125 28.90625 54.984375 
C 28.90625 44.453125 23.90625 36.59375 18.40625 36.59375 
" id="CMR17-37"/>
      <path d="M 26.296875 24.703125 
C 26.296875 31.875 25.59375 44.015625 19.59375 56.859375 
C 14.796875 67.234375 6.59375 74.5 5.40625 74.5 
C 5.09375 74.5 4.703125 74.390625 4.703125 73.890625 
C 4.703125 73.703125 4.796875 73.59375 4.90625 73.390625 
C 9.703125 68.40625 21.90625 55.75 21.90625 24.75 
C 21.90625 -6.359375 9.796875 -19.015625 4.90625 -24.015625 
C 4.796875 -24.203125 4.703125 -24.3125 4.703125 -24.5 
C 4.703125 -25 5.09375 -25 5.40625 -25 
C 6.5 -25 15 -17.625 19.90625 -6.65625 
C 24.90625 4.390625 26.296875 15.140625 26.296875 24.703125 
" id="CMR17-41"/>
     </defs>
     <g transform="translate(9.724782 96.645196)rotate(-90)scale(0.09 -0.09)">
      <use transform="scale(0.996264)" xlink:href="#CMR17-68"/>
      <use transform="translate(70.393556 0)scale(0.996264)" xlink:href="#CMR17-105"/>
      <use transform="translate(95.264614 0)scale(0.996264)" xlink:href="#CMR17-11"/>
      <use transform="translate(147.609292 0)scale(0.996264)" xlink:href="#CMR17-101"/>
      <use transform="translate(188.094952 0)scale(0.996264)" xlink:href="#CMR17-114"/>
      <use transform="translate(223.37572 0)scale(0.996264)" xlink:href="#CMR17-101"/>
      <use transform="translate(263.86138 0)scale(0.996264)" xlink:href="#CMR17-110"/>
      <use transform="translate(314.75675 0)scale(0.996264)" xlink:href="#CMR17-99"/>
      <use transform="translate(355.242411 0)scale(0.996264)" xlink:href="#CMR17-101"/>
      <use transform="translate(425.804037 0)scale(0.996264)" xlink:href="#CMR17-40"/>
      <use transform="translate(461.084805 0)scale(0.996264)" xlink:href="#CMR17-37"/>
      <use transform="translate(538.004395 0)scale(0.996264)" xlink:href="#CMR17-41"/>
     </g>
    </g>
   </g>
   <g id="line2d_42">
    <path clip-path="url(#pd924f6b2c8)" d="M 49.693884 16.502711 
L 59.296959 41.398668 
L 68.900034 59.240104 
L 78.503109 64.26206 
L 88.106184 64.307392 
L 97.709259 64.459665 
L 107.312334 64.730755 
L 116.915409 64.720216 
L 126.518484 64.692142 
L 136.121559 64.687303 
L 145.724634 64.692077 
L 155.327709 64.696595 
L 164.930784 64.705811 
L 174.533859 64.707845 
L 184.136934 64.710953 
L 193.740009 64.708481 
L 203.343084 64.70752 
L 212.946159 64.706352 
L 222.549234 64.706427 
L 232.152309 64.706331 
" style="fill:none;stroke:#1f77b4;stroke-linecap:square;"/>
    <defs>
     <path d="M 0 2.5 
C 0.663008 2.5 1.29895 2.236584 1.767767 1.767767 
C 2.236584 1.29895 2.5 0.663008 2.5 0 
C 2.5 -0.663008 2.236584 -1.29895 1.767767 -1.767767 
C 1.29895 -2.236584 0.663008 -2.5 0 -2.5 
C -0.663008 -2.5 -1.29895 -2.236584 -1.767767 -1.767767 
C -2.236584 -1.29895 -2.5 -0.663008 -2.5 0 
C -2.5 0.663008 -2.236584 1.29895 -1.767767 1.767767 
C -1.29895 2.236584 -0.663008 2.5 0 2.5 
z
" id="mc55d5da599" style="stroke:#1f77b4;"/>
    </defs>
    <g clip-path="url(#pd924f6b2c8)">
     <use style="fill:#1f77b4;stroke:#1f77b4;" x="49.693884" xlink:href="#mc55d5da599" y="16.502711"/>
     <use style="fill:#1f77b4;stroke:#1f77b4;" x="59.296959" xlink:href="#mc55d5da599" y="41.398668"/>
     <use style="fill:#1f77b4;stroke:#1f77b4;" x="68.900034" xlink:href="#mc55d5da599" y="59.240104"/>
     <use style="fill:#1f77b4;stroke:#1f77b4;" x="78.503109" xlink:href="#mc55d5da599" y="64.26206"/>
     <use style="fill:#1f77b4;stroke:#1f77b4;" x="88.106184" xlink:href="#mc55d5da599" y="64.307392"/>
     <use style="fill:#1f77b4;stroke:#1f77b4;" x="97.709259" xlink:href="#mc55d5da599" y="64.459665"/>
     <use style="fill:#1f77b4;stroke:#1f77b4;" x="107.312334" xlink:href="#mc55d5da599" y="64.730755"/>
     <use style="fill:#1f77b4;stroke:#1f77b4;" x="116.915409" xlink:href="#mc55d5da599" y="64.720216"/>
     <use style="fill:#1f77b4;stroke:#1f77b4;" x="126.518484" xlink:href="#mc55d5da599" y="64.692142"/>
     <use style="fill:#1f77b4;stroke:#1f77b4;" x="136.121559" xlink:href="#mc55d5da599" y="64.687303"/>
     <use style="fill:#1f77b4;stroke:#1f77b4;" x="145.724634" xlink:href="#mc55d5da599" y="64.692077"/>
     <use style="fill:#1f77b4;stroke:#1f77b4;" x="155.327709" xlink:href="#mc55d5da599" y="64.696595"/>
     <use style="fill:#1f77b4;stroke:#1f77b4;" x="164.930784" xlink:href="#mc55d5da599" y="64.705811"/>
     <use style="fill:#1f77b4;stroke:#1f77b4;" x="174.533859" xlink:href="#mc55d5da599" y="64.707845"/>
     <use style="fill:#1f77b4;stroke:#1f77b4;" x="184.136934" xlink:href="#mc55d5da599" y="64.710953"/>
     <use style="fill:#1f77b4;stroke:#1f77b4;" x="193.740009" xlink:href="#mc55d5da599" y="64.708481"/>
     <use style="fill:#1f77b4;stroke:#1f77b4;" x="203.343084" xlink:href="#mc55d5da599" y="64.70752"/>
     <use style="fill:#1f77b4;stroke:#1f77b4;" x="212.946159" xlink:href="#mc55d5da599" y="64.706352"/>
     <use style="fill:#1f77b4;stroke:#1f77b4;" x="222.549234" xlink:href="#mc55d5da599" y="64.706427"/>
     <use style="fill:#1f77b4;stroke:#1f77b4;" x="232.152309" xlink:href="#mc55d5da599" y="64.706331"/>
    </g>
   </g>
   <g id="line2d_43">
    <path clip-path="url(#pd924f6b2c8)" d="M 49.693884 11.684986 
L 59.296959 34.530265 
L 68.900034 57.904745 
L 78.503109 70.112654 
L 88.106184 80.577615 
L 97.709259 85.018734 
L 107.312334 88.830712 
L 116.915409 100.945939 
L 126.518484 97.069351 
L 136.121559 97.346571 
L 145.724634 98.500515 
L 155.327709 99.284286 
L 164.930784 101.58378 
L 174.533859 101.712184 
L 184.136934 102.115296 
L 193.740009 101.399557 
L 203.343084 101.186061 
L 212.946159 101.016762 
L 222.549234 101.063244 
L 232.152309 101.072998 
" style="fill:none;stroke:#ff7f0e;stroke-linecap:square;"/>
    <defs>
     <path d="M -2.5 2.5 
L 2.5 2.5 
L 2.5 -2.5 
L -2.5 -2.5 
z
" id="m8ec8669793" style="stroke:#ff7f0e;stroke-linejoin:miter;"/>
    </defs>
    <g clip-path="url(#pd924f6b2c8)">
     <use style="fill:#ff7f0e;stroke:#ff7f0e;stroke-linejoin:miter;" x="49.693884" xlink:href="#m8ec8669793" y="11.684986"/>
     <use style="fill:#ff7f0e;stroke:#ff7f0e;stroke-linejoin:miter;" x="59.296959" xlink:href="#m8ec8669793" y="34.530265"/>
     <use style="fill:#ff7f0e;stroke:#ff7f0e;stroke-linejoin:miter;" x="68.900034" xlink:href="#m8ec8669793" y="57.904745"/>
     <use style="fill:#ff7f0e;stroke:#ff7f0e;stroke-linejoin:miter;" x="78.503109" xlink:href="#m8ec8669793" y="70.112654"/>
     <use style="fill:#ff7f0e;stroke:#ff7f0e;stroke-linejoin:miter;" x="88.106184" xlink:href="#m8ec8669793" y="80.577615"/>
     <use style="fill:#ff7f0e;stroke:#ff7f0e;stroke-linejoin:miter;" x="97.709259" xlink:href="#m8ec8669793" y="85.018734"/>
     <use style="fill:#ff7f0e;stroke:#ff7f0e;stroke-linejoin:miter;" x="107.312334" xlink:href="#m8ec8669793" y="88.830712"/>
     <use style="fill:#ff7f0e;stroke:#ff7f0e;stroke-linejoin:miter;" x="116.915409" xlink:href="#m8ec8669793" y="100.945939"/>
     <use style="fill:#ff7f0e;stroke:#ff7f0e;stroke-linejoin:miter;" x="126.518484" xlink:href="#m8ec8669793" y="97.069351"/>
     <use style="fill:#ff7f0e;stroke:#ff7f0e;stroke-linejoin:miter;" x="136.121559" xlink:href="#m8ec8669793" y="97.346571"/>
     <use style="fill:#ff7f0e;stroke:#ff7f0e;stroke-linejoin:miter;" x="145.724634" xlink:href="#m8ec8669793" y="98.500515"/>
     <use style="fill:#ff7f0e;stroke:#ff7f0e;stroke-linejoin:miter;" x="155.327709" xlink:href="#m8ec8669793" y="99.284286"/>
     <use style="fill:#ff7f0e;stroke:#ff7f0e;stroke-linejoin:miter;" x="164.930784" xlink:href="#m8ec8669793" y="101.58378"/>
     <use style="fill:#ff7f0e;stroke:#ff7f0e;stroke-linejoin:miter;" x="174.533859" xlink:href="#m8ec8669793" y="101.712184"/>
     <use style="fill:#ff7f0e;stroke:#ff7f0e;stroke-linejoin:miter;" x="184.136934" xlink:href="#m8ec8669793" y="102.115296"/>
     <use style="fill:#ff7f0e;stroke:#ff7f0e;stroke-linejoin:miter;" x="193.740009" xlink:href="#m8ec8669793" y="101.399557"/>
     <use style="fill:#ff7f0e;stroke:#ff7f0e;stroke-linejoin:miter;" x="203.343084" xlink:href="#m8ec8669793" y="101.186061"/>
     <use style="fill:#ff7f0e;stroke:#ff7f0e;stroke-linejoin:miter;" x="212.946159" xlink:href="#m8ec8669793" y="101.016762"/>
     <use style="fill:#ff7f0e;stroke:#ff7f0e;stroke-linejoin:miter;" x="222.549234" xlink:href="#m8ec8669793" y="101.063244"/>
     <use style="fill:#ff7f0e;stroke:#ff7f0e;stroke-linejoin:miter;" x="232.152309" xlink:href="#m8ec8669793" y="101.072998"/>
    </g>
   </g>
   <g id="line2d_44">
    <path clip-path="url(#pd924f6b2c8)" d="M 49.693884 11.201555 
L 59.296959 33.429047 
L 68.900034 56.847766 
L 78.503109 69.166169 
L 88.106184 80.137761 
L 97.709259 85.411673 
L 107.312334 86.230534 
L 116.915409 96.254691 
L 126.518484 101.248595 
L 136.121559 102.643676 
L 145.724634 105.921357 
L 155.327709 108.436971 
L 164.930784 108.798994 
L 174.533859 111.538378 
L 184.136934 116.768525 
L 193.740009 121.276715 
L 203.343084 118.610328 
L 212.946159 117.381462 
L 222.549234 117.934118 
L 232.152309 118.1549 
" style="fill:none;stroke:#2ca02c;stroke-linecap:square;"/>
    <defs>
     <path d="M 0 -2.5 
L -2.5 2.5 
L 2.5 2.5 
z
" id="m83791edcda" style="stroke:#2ca02c;stroke-linejoin:miter;"/>
    </defs>
    <g clip-path="url(#pd924f6b2c8)">
     <use style="fill:#2ca02c;stroke:#2ca02c;stroke-linejoin:miter;" x="49.693884" xlink:href="#m83791edcda" y="11.201555"/>
     <use style="fill:#2ca02c;stroke:#2ca02c;stroke-linejoin:miter;" x="59.296959" xlink:href="#m83791edcda" y="33.429047"/>
     <use style="fill:#2ca02c;stroke:#2ca02c;stroke-linejoin:miter;" x="68.900034" xlink:href="#m83791edcda" y="56.847766"/>
     <use style="fill:#2ca02c;stroke:#2ca02c;stroke-linejoin:miter;" x="78.503109" xlink:href="#m83791edcda" y="69.166169"/>
     <use style="fill:#2ca02c;stroke:#2ca02c;stroke-linejoin:miter;" x="88.106184" xlink:href="#m83791edcda" y="80.137761"/>
     <use style="fill:#2ca02c;stroke:#2ca02c;stroke-linejoin:miter;" x="97.709259" xlink:href="#m83791edcda" y="85.411673"/>
     <use style="fill:#2ca02c;stroke:#2ca02c;stroke-linejoin:miter;" x="107.312334" xlink:href="#m83791edcda" y="86.230534"/>
     <use style="fill:#2ca02c;stroke:#2ca02c;stroke-linejoin:miter;" x="116.915409" xlink:href="#m83791edcda" y="96.254691"/>
     <use style="fill:#2ca02c;stroke:#2ca02c;stroke-linejoin:miter;" x="126.518484" xlink:href="#m83791edcda" y="101.248595"/>
     <use style="fill:#2ca02c;stroke:#2ca02c;stroke-linejoin:miter;" x="136.121559" xlink:href="#m83791edcda" y="102.643676"/>
     <use style="fill:#2ca02c;stroke:#2ca02c;stroke-linejoin:miter;" x="145.724634" xlink:href="#m83791edcda" y="105.921357"/>
     <use style="fill:#2ca02c;stroke:#2ca02c;stroke-linejoin:miter;" x="155.327709" xlink:href="#m83791edcda" y="108.436971"/>
     <use style="fill:#2ca02c;stroke:#2ca02c;stroke-linejoin:miter;" x="164.930784" xlink:href="#m83791edcda" y="108.798994"/>
     <use style="fill:#2ca02c;stroke:#2ca02c;stroke-linejoin:miter;" x="174.533859" xlink:href="#m83791edcda" y="111.538378"/>
     <use style="fill:#2ca02c;stroke:#2ca02c;stroke-linejoin:miter;" x="184.136934" xlink:href="#m83791edcda" y="116.768525"/>
     <use style="fill:#2ca02c;stroke:#2ca02c;stroke-linejoin:miter;" x="193.740009" xlink:href="#m83791edcda" y="121.276715"/>
     <use style="fill:#2ca02c;stroke:#2ca02c;stroke-linejoin:miter;" x="203.343084" xlink:href="#m83791edcda" y="118.610328"/>
     <use style="fill:#2ca02c;stroke:#2ca02c;stroke-linejoin:miter;" x="212.946159" xlink:href="#m83791edcda" y="117.381462"/>
     <use style="fill:#2ca02c;stroke:#2ca02c;stroke-linejoin:miter;" x="222.549234" xlink:href="#m83791edcda" y="117.934118"/>
     <use style="fill:#2ca02c;stroke:#2ca02c;stroke-linejoin:miter;" x="232.152309" xlink:href="#m83791edcda" y="118.1549"/>
    </g>
   </g>
   <g id="line2d_45">
    <path clip-path="url(#pd924f6b2c8)" d="M 49.693884 10.744485 
L 59.296959 32.438445 
L 68.900034 55.873602 
L 78.503109 68.394793 
L 88.106184 79.318324 
L 97.709259 85.000267 
L 107.312334 85.002116 
L 116.915409 95.392313 
L 126.518484 100.299511 
L 136.121559 102.420386 
L 145.724634 106.475594 
L 155.327709 109.504812 
L 164.930784 106.270832 
L 174.533859 108.69038 
L 184.136934 112.838129 
L 193.740009 120.559957 
L 203.343084 124.144798 
L 212.946159 122.359469 
L 222.549234 123.786107 
L 232.152309 124.585348 
" style="fill:none;stroke:#d62728;stroke-linecap:square;"/>
    <defs>
     <path d="M -0 2 
L 2 -2 
L -2 -2 
z
" id="m4f5555f98d" style="stroke:#d62728;stroke-linejoin:miter;"/>
    </defs>
    <g clip-path="url(#pd924f6b2c8)">
     <use style="fill:#d62728;stroke:#d62728;stroke-linejoin:miter;" x="49.693884" xlink:href="#m4f5555f98d" y="10.744485"/>
     <use style="fill:#d62728;stroke:#d62728;stroke-linejoin:miter;" x="59.296959" xlink:href="#m4f5555f98d" y="32.438445"/>
     <use style="fill:#d62728;stroke:#d62728;stroke-linejoin:miter;" x="68.900034" xlink:href="#m4f5555f98d" y="55.873602"/>
     <use style="fill:#d62728;stroke:#d62728;stroke-linejoin:miter;" x="78.503109" xlink:href="#m4f5555f98d" y="68.394793"/>
     <use style="fill:#d62728;stroke:#d62728;stroke-linejoin:miter;" x="88.106184" xlink:href="#m4f5555f98d" y="79.318324"/>
     <use style="fill:#d62728;stroke:#d62728;stroke-linejoin:miter;" x="97.709259" xlink:href="#m4f5555f98d" y="85.000267"/>
     <use style="fill:#d62728;stroke:#d62728;stroke-linejoin:miter;" x="107.312334" xlink:href="#m4f5555f98d" y="85.002116"/>
     <use style="fill:#d62728;stroke:#d62728;stroke-linejoin:miter;" x="116.915409" xlink:href="#m4f5555f98d" y="95.392313"/>
     <use style="fill:#d62728;stroke:#d62728;stroke-linejoin:miter;" x="126.518484" xlink:href="#m4f5555f98d" y="100.299511"/>
     <use style="fill:#d62728;stroke:#d62728;stroke-linejoin:miter;" x="136.121559" xlink:href="#m4f5555f98d" y="102.420386"/>
     <use style="fill:#d62728;stroke:#d62728;stroke-linejoin:miter;" x="145.724634" xlink:href="#m4f5555f98d" y="106.475594"/>
     <use style="fill:#d62728;stroke:#d62728;stroke-linejoin:miter;" x="155.327709" xlink:href="#m4f5555f98d" y="109.504812"/>
     <use style="fill:#d62728;stroke:#d62728;stroke-linejoin:miter;" x="164.930784" xlink:href="#m4f5555f98d" y="106.270832"/>
     <use style="fill:#d62728;stroke:#d62728;stroke-linejoin:miter;" x="174.533859" xlink:href="#m4f5555f98d" y="108.69038"/>
     <use style="fill:#d62728;stroke:#d62728;stroke-linejoin:miter;" x="184.136934" xlink:href="#m4f5555f98d" y="112.838129"/>
     <use style="fill:#d62728;stroke:#d62728;stroke-linejoin:miter;" x="193.740009" xlink:href="#m4f5555f98d" y="120.559957"/>
     <use style="fill:#d62728;stroke:#d62728;stroke-linejoin:miter;" x="203.343084" xlink:href="#m4f5555f98d" y="124.144798"/>
     <use style="fill:#d62728;stroke:#d62728;stroke-linejoin:miter;" x="212.946159" xlink:href="#m4f5555f98d" y="122.359469"/>
     <use style="fill:#d62728;stroke:#d62728;stroke-linejoin:miter;" x="222.549234" xlink:href="#m4f5555f98d" y="123.786107"/>
     <use style="fill:#d62728;stroke:#d62728;stroke-linejoin:miter;" x="232.152309" xlink:href="#m4f5555f98d" y="124.585348"/>
    </g>
   </g>
   <g id="line2d_46">
    <path clip-path="url(#pd924f6b2c8)" d="M 49.693884 10.699069 
L 59.296959 32.343456 
L 68.900034 55.779938 
L 78.503109 68.320432 
L 88.106184 79.235833 
L 97.709259 84.952955 
L 107.312334 84.892469 
L 116.915409 95.333365 
L 126.518484 100.16203 
L 136.121559 102.329212 
L 145.724634 106.430025 
L 155.327709 109.467017 
L 164.930784 106.152379 
L 174.533859 108.586568 
L 184.136934 112.763279 
L 193.740009 120.506346 
L 203.343084 123.927208 
L 212.946159 122.245681 
L 222.549234 123.683379 
L 232.152309 124.504294 
" style="fill:none;stroke:#9467bd;stroke-linecap:square;"/>
    <defs>
     <path d="M -0 2.12132 
L 2.12132 0 
L 0 -2.12132 
L -2.12132 -0 
z
" id="md7f5f0cdae" style="stroke:#9467bd;stroke-linejoin:miter;"/>
    </defs>
    <g clip-path="url(#pd924f6b2c8)">
     <use style="fill:#9467bd;stroke:#9467bd;stroke-linejoin:miter;" x="49.693884" xlink:href="#md7f5f0cdae" y="10.699069"/>
     <use style="fill:#9467bd;stroke:#9467bd;stroke-linejoin:miter;" x="59.296959" xlink:href="#md7f5f0cdae" y="32.343456"/>
     <use style="fill:#9467bd;stroke:#9467bd;stroke-linejoin:miter;" x="68.900034" xlink:href="#md7f5f0cdae" y="55.779938"/>
     <use style="fill:#9467bd;stroke:#9467bd;stroke-linejoin:miter;" x="78.503109" xlink:href="#md7f5f0cdae" y="68.320432"/>
     <use style="fill:#9467bd;stroke:#9467bd;stroke-linejoin:miter;" x="88.106184" xlink:href="#md7f5f0cdae" y="79.235833"/>
     <use style="fill:#9467bd;stroke:#9467bd;stroke-linejoin:miter;" x="97.709259" xlink:href="#md7f5f0cdae" y="84.952955"/>
     <use style="fill:#9467bd;stroke:#9467bd;stroke-linejoin:miter;" x="107.312334" xlink:href="#md7f5f0cdae" y="84.892469"/>
     <use style="fill:#9467bd;stroke:#9467bd;stroke-linejoin:miter;" x="116.915409" xlink:href="#md7f5f0cdae" y="95.333365"/>
     <use style="fill:#9467bd;stroke:#9467bd;stroke-linejoin:miter;" x="126.518484" xlink:href="#md7f5f0cdae" y="100.16203"/>
     <use style="fill:#9467bd;stroke:#9467bd;stroke-linejoin:miter;" x="136.121559" xlink:href="#md7f5f0cdae" y="102.329212"/>
     <use style="fill:#9467bd;stroke:#9467bd;stroke-linejoin:miter;" x="145.724634" xlink:href="#md7f5f0cdae" y="106.430025"/>
     <use style="fill:#9467bd;stroke:#9467bd;stroke-linejoin:miter;" x="155.327709" xlink:href="#md7f5f0cdae" y="109.467017"/>
     <use style="fill:#9467bd;stroke:#9467bd;stroke-linejoin:miter;" x="164.930784" xlink:href="#md7f5f0cdae" y="106.152379"/>
     <use style="fill:#9467bd;stroke:#9467bd;stroke-linejoin:miter;" x="174.533859" xlink:href="#md7f5f0cdae" y="108.586568"/>
     <use style="fill:#9467bd;stroke:#9467bd;stroke-linejoin:miter;" x="184.136934" xlink:href="#md7f5f0cdae" y="112.763279"/>
     <use style="fill:#9467bd;stroke:#9467bd;stroke-linejoin:miter;" x="193.740009" xlink:href="#md7f5f0cdae" y="120.506346"/>
     <use style="fill:#9467bd;stroke:#9467bd;stroke-linejoin:miter;" x="203.343084" xlink:href="#md7f5f0cdae" y="123.927208"/>
     <use style="fill:#9467bd;stroke:#9467bd;stroke-linejoin:miter;" x="212.946159" xlink:href="#md7f5f0cdae" y="122.245681"/>
     <use style="fill:#9467bd;stroke:#9467bd;stroke-linejoin:miter;" x="222.549234" xlink:href="#md7f5f0cdae" y="123.683379"/>
     <use style="fill:#9467bd;stroke:#9467bd;stroke-linejoin:miter;" x="232.152309" xlink:href="#md7f5f0cdae" y="124.504294"/>
    </g>
   </g>
   <g id="line2d_47">
    <path clip-path="url(#pd924f6b2c8)" d="M 49.693884 10.69454 
L 59.296959 32.334019 
L 68.900034 55.770632 
L 78.503109 68.313033 
L 88.106184 79.227629 
L 97.709259 84.948238 
L 107.312334 84.881588 
L 116.915409 95.327496 
L 126.518484 100.148408 
L 136.121559 102.320145 
L 145.724634 106.425471 
L 155.327709 109.463231 
L 164.930784 106.140641 
L 174.533859 108.576274 
L 184.136934 112.755856 
L 193.740009 120.501069 
L 203.343084 123.905678 
L 212.946159 122.23431 
L 222.549234 123.673081 
L 232.152309 124.496124 
" style="fill:none;stroke:#8c564b;stroke-linecap:square;"/>
    <defs>
     <path d="M -0.382683 -0.92388 
L -0.92388 -0.382683 
L -0.92388 0.382683 
L -0.382683 0.92388 
L 0.382683 0.92388 
L 0.92388 0.382683 
L 0.92388 -0.382683 
L 0.382683 -0.92388 
z
" id="m1f4df5baa7" style="stroke:#8c564b;stroke-linejoin:miter;"/>
    </defs>
    <g clip-path="url(#pd924f6b2c8)">
     <use style="fill:#8c564b;stroke:#8c564b;stroke-linejoin:miter;" x="49.693884" xlink:href="#m1f4df5baa7" y="10.69454"/>
     <use style="fill:#8c564b;stroke:#8c564b;stroke-linejoin:miter;" x="59.296959" xlink:href="#m1f4df5baa7" y="32.334019"/>
     <use style="fill:#8c564b;stroke:#8c564b;stroke-linejoin:miter;" x="68.900034" xlink:href="#m1f4df5baa7" y="55.770632"/>
     <use style="fill:#8c564b;stroke:#8c564b;stroke-linejoin:miter;" x="78.503109" xlink:href="#m1f4df5baa7" y="68.313033"/>
     <use style="fill:#8c564b;stroke:#8c564b;stroke-linejoin:miter;" x="88.106184" xlink:href="#m1f4df5baa7" y="79.227629"/>
     <use style="fill:#8c564b;stroke:#8c564b;stroke-linejoin:miter;" x="97.709259" xlink:href="#m1f4df5baa7" y="84.948238"/>
     <use style="fill:#8c564b;stroke:#8c564b;stroke-linejoin:miter;" x="107.312334" xlink:href="#m1f4df5baa7" y="84.881588"/>
     <use style="fill:#8c564b;stroke:#8c564b;stroke-linejoin:miter;" x="116.915409" xlink:href="#m1f4df5baa7" y="95.327496"/>
     <use style="fill:#8c564b;stroke:#8c564b;stroke-linejoin:miter;" x="126.518484" xlink:href="#m1f4df5baa7" y="100.148408"/>
     <use style="fill:#8c564b;stroke:#8c564b;stroke-linejoin:miter;" x="136.121559" xlink:href="#m1f4df5baa7" y="102.320145"/>
     <use style="fill:#8c564b;stroke:#8c564b;stroke-linejoin:miter;" x="145.724634" xlink:href="#m1f4df5baa7" y="106.425471"/>
     <use style="fill:#8c564b;stroke:#8c564b;stroke-linejoin:miter;" x="155.327709" xlink:href="#m1f4df5baa7" y="109.463231"/>
     <use style="fill:#8c564b;stroke:#8c564b;stroke-linejoin:miter;" x="164.930784" xlink:href="#m1f4df5baa7" y="106.140641"/>
     <use style="fill:#8c564b;stroke:#8c564b;stroke-linejoin:miter;" x="174.533859" xlink:href="#m1f4df5baa7" y="108.576274"/>
     <use style="fill:#8c564b;stroke:#8c564b;stroke-linejoin:miter;" x="184.136934" xlink:href="#m1f4df5baa7" y="112.755856"/>
     <use style="fill:#8c564b;stroke:#8c564b;stroke-linejoin:miter;" x="193.740009" xlink:href="#m1f4df5baa7" y="120.501069"/>
     <use style="fill:#8c564b;stroke:#8c564b;stroke-linejoin:miter;" x="203.343084" xlink:href="#m1f4df5baa7" y="123.905678"/>
     <use style="fill:#8c564b;stroke:#8c564b;stroke-linejoin:miter;" x="212.946159" xlink:href="#m1f4df5baa7" y="122.23431"/>
     <use style="fill:#8c564b;stroke:#8c564b;stroke-linejoin:miter;" x="222.549234" xlink:href="#m1f4df5baa7" y="123.673081"/>
     <use style="fill:#8c564b;stroke:#8c564b;stroke-linejoin:miter;" x="232.152309" xlink:href="#m1f4df5baa7" y="124.496124"/>
    </g>
   </g>
   <g id="line2d_48">
    <path clip-path="url(#pd924f6b2c8)" d="M 40.090809 110.442599 
L 232.152309 110.442599 
" style="fill:none;stroke:#000000;stroke-dasharray:5.6,2.4;stroke-dashoffset:0;stroke-width:0.5;"/>
   </g>
   <g id="patch_3">
    <path d="M 40.090809 130.279888 
L 40.090809 5 
" style="fill:none;stroke:#3a3a3a;stroke-linecap:square;stroke-linejoin:miter;"/>
   </g>
   <g id="patch_4">
    <path d="M 232.152309 130.279888 
L 232.152309 5 
" style="fill:none;stroke:#3a3a3a;stroke-linecap:square;stroke-linejoin:miter;"/>
   </g>
   <g id="patch_5">
    <path d="M 40.090809 130.279888 
L 232.152309 130.279888 
" style="fill:none;stroke:#3a3a3a;stroke-linecap:square;stroke-linejoin:miter;"/>
   </g>
   <g id="patch_6">
    <path d="M 40.090809 5 
L 232.152309 5 
" style="fill:none;stroke:#3a3a3a;stroke-linecap:square;stroke-linejoin:miter;"/>
   </g>
   <g id="text_5">
    <!-- (a) -->
    <defs>
     <path d="M 36 25.828125 
C 36 32.375 36 35.84375 31.796875 39.734375 
C 28.09375 43 23.796875 44 20.40625 44 
C 12.5 44 6.796875 37.609375 6.796875 30.796875 
C 6.796875 27 9.796875 27 10.40625 27 
C 11.703125 27 14 27.78125 14 30.53125 
C 14 33 12.09375 34.078125 10.40625 34.078125 
C 10 34.078125 9.5 33.96875 9.203125 33.875 
C 11.296875 40.5 16.703125 42.40625 20.203125 42.40625 
C 25.203125 42.40625 30.703125 37.953125 30.703125 29.453125 
L 30.703125 25 
C 24.796875 25 17.703125 24.203125 12.09375 21.203125 
C 5.796875 17.703125 4 12.703125 4 8.90625 
C 4 1.203125 13 -1 18.296875 -1 
C 23.796875 -1 28.90625 2.171875 31.09375 7.984375 
C 31.296875 3.640625 34.09375 -0.28125 38.5 -0.28125 
C 40.59375 -0.28125 45.90625 1.09375 45.90625 8.859375 
L 45.90625 14.375 
L 44.09375 14.375 
L 44.09375 8.78125 
C 44.09375 2.78125 41.40625 2 40.09375 2 
C 36 2 36 7.15625 36 11.53125 
z
M 30.703125 13.59375 
C 30.703125 4.953125 24.5 0.59375 19 0.59375 
C 14 0.59375 10.09375 4.296875 10.09375 8.90625 
C 10.09375 11.890625 11.40625 17.1875 17.203125 20.390625 
C 22 23.09375 27.5 23.5 30.703125 23.5 
z
" id="CMR17-97"/>
    </defs>
    <g style="fill:#3a3a3a;" transform="translate(-0.242106 17.527989)scale(0.12 -0.12)">
     <use transform="scale(0.996264)" xlink:href="#CMR17-40"/>
     <use transform="translate(35.280768 0)scale(0.996264)" xlink:href="#CMR17-97"/>
     <use transform="translate(80.971245 0)scale(0.996264)" xlink:href="#CMR17-41"/>
    </g>
   </g>
   <g id="legend_1">
    <g id="patch_7">
     <path d="M 153.791214 87.460772 
L 225.852309 87.460772 
Q 227.652309 87.460772 227.652309 85.660772 
L 227.652309 11.3 
Q 227.652309 9.5 225.852309 9.5 
L 153.791214 9.5 
Q 151.991214 9.5 151.991214 11.3 
L 151.991214 85.660772 
Q 151.991214 87.460772 153.791214 87.460772 
z
" style="fill:#ffffff;opacity:0.8;stroke:#cccccc;stroke-linejoin:miter;"/>
    </g>
    <g id="line2d_49">
     <path d="M 155.591214 16.25 
L 173.591214 16.25 
" style="fill:none;stroke:#1f77b4;stroke-linecap:square;"/>
    </g>
    <g id="line2d_50">
     <g>
      <use style="fill:#1f77b4;stroke:#1f77b4;" x="164.591214" xlink:href="#mc55d5da599" y="16.25"/>
     </g>
    </g>
    <g id="text_6">
     <!-- b=100m -->
     <defs>
      <path d="M 15 68.6875 
L 3.09375 67.59375 
L 3.09375 65 
C 9 65 9.90625 64.40625 9.90625 59.640625 
L 9.90625 -0.203125 
L 11.703125 -0.203125 
L 14.59375 6.890625 
C 17.5 2.203125 21.796875 -1 27.59375 -1 
C 37.59375 -1 47.703125 7.8125 47.703125 21.40625 
C 47.703125 34.1875 38.703125 43.59375 28.59375 43.59375 
C 22.40625 43.59375 18 40.296875 15 36.40625 
z
M 15.203125 31.3125 
C 15.203125 33.09375 15.203125 33.40625 16.59375 35.5 
C 20.5 41.515625 26.09375 42 28 42 
C 31 42 41.296875 40.390625 41.296875 21.5 
C 41.296875 1.6875 29.5 0.59375 27.09375 0.59375 
C 24 0.59375 19.5 1.78125 16.296875 7.59375 
C 15.203125 9.5 15.203125 9.703125 15.203125 11.484375 
z
" id="CMR17-98"/>
      <path d="M 64.296875 31.515625 
C 65.796875 31.515625 67.296875 31.515625 67.296875 33.203125 
C 67.296875 35 65.59375 35 63.90625 35 
L 8 35 
C 6.296875 35 4.59375 35 4.59375 33.203125 
C 4.59375 31.515625 6.09375 31.515625 7.59375 31.515625 
z
M 63.90625 14 
C 65.59375 14 67.296875 14 67.296875 15.796875 
C 67.296875 17.484375 65.796875 17.484375 64.296875 17.484375 
L 7.59375 17.484375 
C 6.09375 17.484375 4.59375 17.484375 4.59375 15.796875 
C 4.59375 14 6.296875 14 8 14 
z
" id="CMR17-61"/>
      <path d="M 67.59375 30.203125 
C 67.59375 35.1875 66.703125 43.59375 54.796875 43.59375 
C 48 43.59375 43.296875 39 41.5 33.609375 
L 41.40625 33.609375 
C 40.203125 41.8125 34.296875 43.59375 28.703125 43.59375 
C 20.796875 43.59375 16.703125 37.5 15.203125 33.5 
L 15.09375 33.5 
L 15.09375 43.59375 
L 3.296875 42.5 
L 3.296875 39.90625 
C 9.203125 39.90625 10.09375 39.296875 10.09375 34.5 
L 10.09375 6.6875 
C 10.09375 2.875 9.703125 2.390625 3.296875 2.390625 
L 3.296875 -0.203125 
C 5.703125 0 10.09375 0 12.703125 0 
C 15.296875 0 19.796875 0 22.203125 -0.203125 
L 22.203125 2.390625 
C 15.796875 2.390625 15.40625 2.78125 15.40625 6.6875 
L 15.40625 25.90625 
C 15.40625 35.109375 21 42 28 42 
C 35.40625 42 36.203125 35.40625 36.203125 30.59375 
L 36.203125 6.6875 
C 36.203125 2.875 35.796875 2.390625 29.40625 2.390625 
L 29.40625 -0.203125 
C 31.796875 0 36.203125 0 38.796875 0 
C 41.40625 0 45.90625 0 48.296875 -0.203125 
L 48.296875 2.390625 
C 41.90625 2.390625 41.5 2.78125 41.5 6.6875 
L 41.5 25.90625 
C 41.5 35.109375 47.09375 42 54.09375 42 
C 61.5 42 62.296875 35.40625 62.296875 30.59375 
L 62.296875 6.6875 
C 62.296875 2.875 61.90625 2.390625 55.5 2.390625 
L 55.5 -0.203125 
C 57.90625 0 62.296875 0 64.90625 0 
C 67.5 0 72 0 74.40625 -0.203125 
L 74.40625 2.390625 
C 68 2.390625 67.59375 2.78125 67.59375 6.6875 
z
" id="CMR17-109"/>
     </defs>
     <g style="fill:#3a3a3a;" transform="translate(180.791214 19.4)scale(0.09 -0.09)">
      <use transform="scale(0.996264)" xlink:href="#CMR17-98"/>
      <use transform="translate(50.89537 0)scale(0.996264)" xlink:href="#CMR17-61"/>
      <use transform="translate(122.610158 0)scale(0.996264)" xlink:href="#CMR17-49"/>
      <use transform="translate(168.300635 0)scale(0.996264)" xlink:href="#CMR17-48"/>
      <use transform="translate(213.991112 0)scale(0.996264)" xlink:href="#CMR17-48"/>
      <use transform="translate(259.68159 0)scale(0.996264)" xlink:href="#CMR17-109"/>
     </g>
    </g>
    <g id="line2d_51">
     <path d="M 155.591214 28.793462 
L 173.591214 28.793462 
" style="fill:none;stroke:#ff7f0e;stroke-linecap:square;"/>
    </g>
    <g id="line2d_52">
     <g>
      <use style="fill:#ff7f0e;stroke:#ff7f0e;stroke-linejoin:miter;" x="164.591214" xlink:href="#m8ec8669793" y="28.793462"/>
     </g>
    </g>
    <g id="text_7">
     <!-- b=500m -->
     <defs>
      <path d="M 11.40625 57.6875 
C 12.40625 57.28125 16.5 56 20.703125 56 
C 30 56 35.09375 61.109375 38 64.0625 
C 38 64.953125 38 65.5 37.40625 65.5 
C 37.296875 65.5 37.09375 65.5 36.296875 65.046875 
C 32.796875 63.40625 28.703125 62.078125 23.703125 62.078125 
C 20.703125 62.078125 16.203125 62.484375 11.296875 64.671875 
C 10.203125 65.171875 10 65.171875 9.90625 65.171875 
C 9.40625 65.171875 9.296875 65.0625 9.296875 63.078125 
L 9.296875 34.421875 
C 9.296875 32.640625 9.296875 32.140625 10.296875 32.140625 
C 10.796875 32.140625 11 32.34375 11.5 33.03125 
C 14.703125 37.515625 19.09375 39.40625 24.09375 39.40625 
C 27.59375 39.40625 35.09375 37.21875 35.09375 20.140625 
C 35.09375 16.953125 35.09375 11.171875 32.09375 6.578125 
C 29.59375 2.484375 25.703125 0.390625 21.40625 0.390625 
C 14.796875 0.390625 8.09375 5 6.296875 12.71875 
C 6.703125 12.609375 7.5 12.421875 7.90625 12.421875 
C 9.203125 12.421875 11.703125 13.125 11.703125 16.21875 
C 11.703125 18.90625 9.796875 20 7.90625 20 
C 5.59375 20 4.09375 18.59375 4.09375 15.796875 
C 4.09375 7.09375 11 -2 21.59375 -2 
C 31.90625 -2 41.703125 6.875 41.703125 19.75 
C 41.703125 31.71875 33.90625 41 24.203125 41 
C 19.09375 41 14.796875 39.109375 11.40625 35.53125 
z
" id="CMR17-53"/>
     </defs>
     <g style="fill:#3a3a3a;" transform="translate(180.791214 31.943462)scale(0.09 -0.09)">
      <use transform="scale(0.996264)" xlink:href="#CMR17-98"/>
      <use transform="translate(50.89537 0)scale(0.996264)" xlink:href="#CMR17-61"/>
      <use transform="translate(122.610158 0)scale(0.996264)" xlink:href="#CMR17-53"/>
      <use transform="translate(168.300635 0)scale(0.996264)" xlink:href="#CMR17-48"/>
      <use transform="translate(213.991112 0)scale(0.996264)" xlink:href="#CMR17-48"/>
      <use transform="translate(259.68159 0)scale(0.996264)" xlink:href="#CMR17-109"/>
     </g>
    </g>
    <g id="line2d_53">
     <path d="M 155.591214 41.336924 
L 173.591214 41.336924 
" style="fill:none;stroke:#2ca02c;stroke-linecap:square;"/>
    </g>
    <g id="line2d_54">
     <g>
      <use style="fill:#2ca02c;stroke:#2ca02c;stroke-linejoin:miter;" x="164.591214" xlink:href="#m83791edcda" y="41.336924"/>
     </g>
    </g>
    <g id="text_8">
     <!-- b=1000m -->
     <g style="fill:#3a3a3a;" transform="translate(180.791214 44.486924)scale(0.09 -0.09)">
      <use transform="scale(0.996264)" xlink:href="#CMR17-98"/>
      <use transform="translate(50.89537 0)scale(0.996264)" xlink:href="#CMR17-61"/>
      <use transform="translate(122.610158 0)scale(0.996264)" xlink:href="#CMR17-49"/>
      <use transform="translate(168.300635 0)scale(0.996264)" xlink:href="#CMR17-48"/>
      <use transform="translate(213.991112 0)scale(0.996264)" xlink:href="#CMR17-48"/>
      <use transform="translate(259.68159 0)scale(0.996264)" xlink:href="#CMR17-48"/>
      <use transform="translate(305.372067 0)scale(0.996264)" xlink:href="#CMR17-109"/>
     </g>
    </g>
    <g id="line2d_55">
     <path d="M 155.591214 53.880386 
L 173.591214 53.880386 
" style="fill:none;stroke:#d62728;stroke-linecap:square;"/>
    </g>
    <g id="line2d_56">
     <g>
      <use style="fill:#d62728;stroke:#d62728;stroke-linejoin:miter;" x="164.591214" xlink:href="#m4f5555f98d" y="53.880386"/>
     </g>
    </g>
    <g id="text_9">
     <!-- b=10km -->
     <defs>
      <path d="M 26.09375 26.140625 
C 26 26.34375 25.5 26.9375 25.5 27.234375 
C 25.5 27.4375 32.59375 33.921875 33.5 34.71875 
C 39.203125 39.5 42.796875 40 45.40625 40 
L 45.40625 42.703125 
C 44.796875 42.703125 44.59375 42.703125 44.5 42.5 
L 39.59375 42.5 
C 36.796875 42.5 32.5 42.5 29.796875 42.703125 
L 29.796875 40.09375 
C 31.203125 39.984375 32.203125 39.1875 32.203125 37.796875 
C 32.203125 35.796875 30.203125 33.90625 30.09375 33.90625 
L 15 20.140625 
L 15 68.6875 
L 3.09375 67.59375 
L 3.09375 65 
C 9 65 9.90625 64.40625 9.90625 59.640625 
L 9.90625 6.65625 
C 9.90625 2.875 9.5 2.390625 3.09375 2.390625 
L 3.09375 -0.203125 
C 5.5 0 9.90625 0 12.40625 0 
C 14.90625 0 19.296875 0 21.703125 -0.203125 
L 21.703125 2.390625 
C 15.296875 2.390625 14.90625 2.78125 14.90625 6.6875 
L 14.90625 17.65625 
L 21.796875 23.9375 
L 31.90625 8.96875 
C 33.09375 7.171875 34.09375 5.765625 34.09375 4.46875 
C 34.09375 2.6875 32.296875 2.390625 31.09375 2.390625 
L 31.09375 -0.203125 
C 33.5 0 37.796875 0 40.296875 0 
C 42.09375 0 45.796875 0 47.5 0 
L 47.5 2.390625 
C 42.796875 2.390625 41.703125 3.28125 38.703125 7.671875 
z
" id="CMR17-107"/>
     </defs>
     <g style="fill:#3a3a3a;" transform="translate(180.791214 57.030386)scale(0.09 -0.09)">
      <use transform="scale(0.996264)" xlink:href="#CMR17-98"/>
      <use transform="translate(50.89537 0)scale(0.996264)" xlink:href="#CMR17-61"/>
      <use transform="translate(122.610158 0)scale(0.996264)" xlink:href="#CMR17-49"/>
      <use transform="translate(168.300635 0)scale(0.996264)" xlink:href="#CMR17-48"/>
      <use transform="translate(213.991112 0)scale(0.996264)" xlink:href="#CMR17-107"/>
      <use transform="translate(262.284028 0)scale(0.996264)" xlink:href="#CMR17-109"/>
     </g>
    </g>
    <g id="line2d_57">
     <path d="M 155.591214 66.423848 
L 173.591214 66.423848 
" style="fill:none;stroke:#9467bd;stroke-linecap:square;"/>
    </g>
    <g id="line2d_58">
     <g>
      <use style="fill:#9467bd;stroke:#9467bd;stroke-linejoin:miter;" x="164.591214" xlink:href="#md7f5f0cdae" y="66.423848"/>
     </g>
    </g>
    <g id="text_10">
     <!-- b=100km -->
     <g style="fill:#3a3a3a;" transform="translate(180.791214 69.573848)scale(0.09 -0.09)">
      <use transform="scale(0.996264)" xlink:href="#CMR17-98"/>
      <use transform="translate(50.89537 0)scale(0.996264)" xlink:href="#CMR17-61"/>
      <use transform="translate(122.610158 0)scale(0.996264)" xlink:href="#CMR17-49"/>
      <use transform="translate(168.300635 0)scale(0.996264)" xlink:href="#CMR17-48"/>
      <use transform="translate(213.991112 0)scale(0.996264)" xlink:href="#CMR17-48"/>
      <use transform="translate(259.68159 0)scale(0.996264)" xlink:href="#CMR17-107"/>
      <use transform="translate(307.974505 0)scale(0.996264)" xlink:href="#CMR17-109"/>
     </g>
    </g>
    <g id="line2d_59">
     <path d="M 155.591214 78.96731 
L 173.591214 78.96731 
" style="fill:none;stroke:#8c564b;stroke-linecap:square;"/>
    </g>
    <g id="line2d_60">
     <g>
      <use style="fill:#8c564b;stroke:#8c564b;stroke-linejoin:miter;" x="164.591214" xlink:href="#m1f4df5baa7" y="78.96731"/>
     </g>
    </g>
    <g id="text_11">
     <!-- b=1000km -->
     <g style="fill:#3a3a3a;" transform="translate(180.791214 82.11731)scale(0.09 -0.09)">
      <use transform="scale(0.996264)" xlink:href="#CMR17-98"/>
      <use transform="translate(50.89537 0)scale(0.996264)" xlink:href="#CMR17-61"/>
      <use transform="translate(122.610158 0)scale(0.996264)" xlink:href="#CMR17-49"/>
      <use transform="translate(168.300635 0)scale(0.996264)" xlink:href="#CMR17-48"/>
      <use transform="translate(213.991112 0)scale(0.996264)" xlink:href="#CMR17-48"/>
      <use transform="translate(259.68159 0)scale(0.996264)" xlink:href="#CMR17-48"/>
      <use transform="translate(305.372067 0)scale(0.996264)" xlink:href="#CMR17-107"/>
      <use transform="translate(353.664983 0)scale(0.996264)" xlink:href="#CMR17-109"/>
     </g>
    </g>
   </g>
  </g>
  <g id="axes_2">
   <g id="patch_8">
    <path d="M 40.090809 259.559776 
L 232.152309 259.559776 
L 232.152309 134.279888 
L 40.090809 134.279888 
z
" style="fill:#ffffff;"/>
   </g>
   <g id="matplotlib.axis_3">
    <g id="xtick_12">
     <g id="line2d_61">
      <path clip-path="url(#p637fa79974)" d="M 40.090809 259.559776 
L 40.090809 134.279888 
" style="fill:none;stroke:#aeaeae;stroke-linecap:square;stroke-width:0.5;"/>
     </g>
     <g id="line2d_62">
      <g>
       <use style="stroke:#000000;stroke-width:0.8;" x="40.090809" xlink:href="#mca98f1c5a6" y="259.559776"/>
      </g>
     </g>
     <g id="text_12">
      <!-- $0$ -->
      <g transform="translate(37.786964 271.286426)scale(0.09 -0.09)">
       <use transform="scale(0.996264)" xlink:href="#CMR17-48"/>
      </g>
     </g>
    </g>
    <g id="xtick_13">
     <g id="line2d_63">
      <path clip-path="url(#p637fa79974)" d="M 59.296959 259.559776 
L 59.296959 134.279888 
" style="fill:none;stroke:#aeaeae;stroke-linecap:square;stroke-width:0.5;"/>
     </g>
     <g id="line2d_64">
      <g>
       <use style="stroke:#000000;stroke-width:0.8;" x="59.296959" xlink:href="#mca98f1c5a6" y="259.559776"/>
      </g>
     </g>
     <g id="text_13">
      <!-- $1$ -->
      <g transform="translate(56.993114 271.286426)scale(0.09 -0.09)">
       <use transform="scale(0.996264)" xlink:href="#CMR17-49"/>
      </g>
     </g>
    </g>
    <g id="xtick_14">
     <g id="line2d_65">
      <path clip-path="url(#p637fa79974)" d="M 78.503109 259.559776 
L 78.503109 134.279888 
" style="fill:none;stroke:#aeaeae;stroke-linecap:square;stroke-width:0.5;"/>
     </g>
     <g id="line2d_66">
      <g>
       <use style="stroke:#000000;stroke-width:0.8;" x="78.503109" xlink:href="#mca98f1c5a6" y="259.559776"/>
      </g>
     </g>
     <g id="text_14">
      <!-- $2$ -->
      <defs>
       <path d="M 41.703125 15.453125 
L 39.90625 15.453125 
C 38.90625 8.375 38.09375 7.171875 37.703125 6.5625 
C 37.203125 5.765625 30 5.765625 28.59375 5.765625 
L 9.40625 5.765625 
C 13 9.671875 20 16.75 28.5 24.953125 
C 34.59375 30.734375 41.703125 37.53125 41.703125 47.421875 
C 41.703125 59.21875 32.296875 66 21.796875 66 
C 10.796875 66 4.09375 56.3125 4.09375 47.34375 
C 4.09375 43.4375 7 42.9375 8.203125 42.9375 
C 9.203125 42.9375 12.203125 43.546875 12.203125 47.03125 
C 12.203125 50.109375 9.59375 51 8.203125 51 
C 7.59375 51 7 50.90625 6.59375 50.703125 
C 8.5 59.21875 14.296875 63.40625 20.40625 63.40625 
C 29.09375 63.40625 34.796875 56.515625 34.796875 47.421875 
C 34.796875 38.734375 29.703125 31.25 24 24.75 
L 4.09375 2.28125 
L 4.09375 0 
L 39.296875 0 
z
" id="CMR17-50"/>
      </defs>
      <g transform="translate(76.199264 271.286426)scale(0.09 -0.09)">
       <use transform="scale(0.996264)" xlink:href="#CMR17-50"/>
      </g>
     </g>
    </g>
    <g id="xtick_15">
     <g id="line2d_67">
      <path clip-path="url(#p637fa79974)" d="M 97.709259 259.559776 
L 97.709259 134.279888 
" style="fill:none;stroke:#aeaeae;stroke-linecap:square;stroke-width:0.5;"/>
     </g>
     <g id="line2d_68">
      <g>
       <use style="stroke:#000000;stroke-width:0.8;" x="97.709259" xlink:href="#mca98f1c5a6" y="259.559776"/>
      </g>
     </g>
     <g id="text_15">
      <!-- $3$ -->
      <g transform="translate(95.405414 271.286426)scale(0.09 -0.09)">
       <use transform="scale(0.996264)" xlink:href="#CMR17-51"/>
      </g>
     </g>
    </g>
    <g id="xtick_16">
     <g id="line2d_69">
      <path clip-path="url(#p637fa79974)" d="M 116.915409 259.559776 
L 116.915409 134.279888 
" style="fill:none;stroke:#aeaeae;stroke-linecap:square;stroke-width:0.5;"/>
     </g>
     <g id="line2d_70">
      <g>
       <use style="stroke:#000000;stroke-width:0.8;" x="116.915409" xlink:href="#mca98f1c5a6" y="259.559776"/>
      </g>
     </g>
     <g id="text_16">
      <!-- $4$ -->
      <defs>
       <path d="M 33.59375 64.40625 
C 33.59375 66.5 33.5 66.5 31.703125 66.5 
L 2 19.59375 
L 2 17 
L 27.796875 17 
L 27.796875 7.140625 
C 27.796875 3.5 27.59375 2.5 20.59375 2.5 
L 18.703125 2.5 
L 18.703125 0 
C 21.90625 0 27.296875 0 30.703125 0 
C 34.09375 0 39.5 0 42.703125 0 
L 42.703125 2.5 
L 40.796875 2.5 
C 33.796875 2.5 33.59375 3.5 33.59375 7.140625 
L 33.59375 17 
L 43.796875 17 
L 43.796875 19.59375 
L 33.59375 19.59375 
z
M 28.09375 57.859375 
L 28.09375 19.59375 
L 4 19.59375 
z
" id="CMR17-52"/>
      </defs>
      <g transform="translate(114.611564 271.286426)scale(0.09 -0.09)">
       <use transform="scale(0.996264)" xlink:href="#CMR17-52"/>
      </g>
     </g>
    </g>
    <g id="xtick_17">
     <g id="line2d_71">
      <path clip-path="url(#p637fa79974)" d="M 136.121559 259.559776 
L 136.121559 134.279888 
" style="fill:none;stroke:#aeaeae;stroke-linecap:square;stroke-width:0.5;"/>
     </g>
     <g id="line2d_72">
      <g>
       <use style="stroke:#000000;stroke-width:0.8;" x="136.121559" xlink:href="#mca98f1c5a6" y="259.559776"/>
      </g>
     </g>
     <g id="text_17">
      <!-- $5$ -->
      <g transform="translate(133.817714 271.286426)scale(0.09 -0.09)">
       <use transform="scale(0.996264)" xlink:href="#CMR17-53"/>
      </g>
     </g>
    </g>
    <g id="xtick_18">
     <g id="line2d_73">
      <path clip-path="url(#p637fa79974)" d="M 155.327709 259.559776 
L 155.327709 134.279888 
" style="fill:none;stroke:#aeaeae;stroke-linecap:square;stroke-width:0.5;"/>
     </g>
     <g id="line2d_74">
      <g>
       <use style="stroke:#000000;stroke-width:0.8;" x="155.327709" xlink:href="#mca98f1c5a6" y="259.559776"/>
      </g>
     </g>
     <g id="text_18">
      <!-- $6$ -->
      <defs>
       <path d="M 10.59375 34 
C 10.59375 57.65625 21.796875 63 28.296875 63 
C 30.40625 63 35.5 62.640625 37.5 59 
C 35.90625 59 32.90625 59 32.90625 55.515625 
C 32.90625 52.828125 35.09375 51.921875 36.5 51.921875 
C 37.40625 51.921875 40.09375 52.3125 40.09375 55.625 
C 40.09375 61.78125 35.09375 65.296875 28.203125 65.296875 
C 16.296875 65.296875 3.796875 52.96875 3.796875 31 
C 3.796875 3.953125 15.09375 -2 23.09375 -2 
C 32.796875 -2 42 6.671875 42 20.046875 
C 42 32.515625 33.90625 41.59375 23.703125 41.59375 
C 17.59375 41.59375 13.09375 37.609375 10.59375 30.625 
z
M 23.09375 0.390625 
C 10.796875 0.390625 10.796875 18.75 10.796875 22.4375 
C 10.796875 29.625 14.203125 40 23.5 40 
C 25.203125 40 30.09375 40 33.40625 33.125 
C 35.203125 29.21875 35.203125 25.140625 35.203125 20.140625 
C 35.203125 14.75 35.203125 10.78125 33.09375 6.78125 
C 30.90625 2.671875 27.703125 0.390625 23.09375 0.390625 
" id="CMR17-54"/>
      </defs>
      <g transform="translate(153.023864 271.286426)scale(0.09 -0.09)">
       <use transform="scale(0.996264)" xlink:href="#CMR17-54"/>
      </g>
     </g>
    </g>
    <g id="xtick_19">
     <g id="line2d_75">
      <path clip-path="url(#p637fa79974)" d="M 174.533859 259.559776 
L 174.533859 134.279888 
" style="fill:none;stroke:#aeaeae;stroke-linecap:square;stroke-width:0.5;"/>
     </g>
     <g id="line2d_76">
      <g>
       <use style="stroke:#000000;stroke-width:0.8;" x="174.533859" xlink:href="#mca98f1c5a6" y="259.559776"/>
      </g>
     </g>
     <g id="text_19">
      <!-- $7$ -->
      <defs>
       <path d="M 45.09375 61.578125 
L 45.09375 63.765625 
L 21.59375 63.765625 
C 9.90625 63.765625 9.703125 65.078125 9.296875 67 
L 7.5 67 
L 4.59375 48.34375 
L 6.40625 48.34375 
C 6.703125 50.234375 7.40625 55.3125 8.59375 57.203125 
C 9.203125 58 16.59375 58 18.296875 58 
L 40.296875 58 
L 29.203125 41.578125 
C 21.796875 30.53125 16.703125 15.609375 16.703125 2.578125 
C 16.703125 1.390625 16.703125 -2 20.296875 -2 
C 23.90625 -2 23.90625 1.390625 23.90625 2.671875 
L 23.90625 7.265625 
C 23.90625 23.5625 26.703125 34.3125 31.296875 41.1875 
z
" id="CMR17-55"/>
      </defs>
      <g transform="translate(172.230014 271.286426)scale(0.09 -0.09)">
       <use transform="scale(0.996264)" xlink:href="#CMR17-55"/>
      </g>
     </g>
    </g>
    <g id="xtick_20">
     <g id="line2d_77">
      <path clip-path="url(#p637fa79974)" d="M 193.740009 259.559776 
L 193.740009 134.279888 
" style="fill:none;stroke:#aeaeae;stroke-linecap:square;stroke-width:0.5;"/>
     </g>
     <g id="line2d_78">
      <g>
       <use style="stroke:#000000;stroke-width:0.8;" x="193.740009" xlink:href="#mca98f1c5a6" y="259.559776"/>
      </g>
     </g>
     <g id="text_20">
      <!-- $8$ -->
      <defs>
       <path d="M 27.203125 35.375 
C 33.5 38.546875 39.90625 43.328125 39.90625 50.984375 
C 39.90625 60.015625 31.09375 65.296875 23 65.296875 
C 13.90625 65.296875 5.90625 58.734375 5.90625 49.6875 
C 5.90625 47.203125 6.5 42.921875 10.40625 39.140625 
C 11.40625 38.15625 15.59375 35.171875 18.296875 33.28125 
C 13.796875 30.984375 3.296875 25.53125 3.296875 14.59375 
C 3.296875 4.359375 13.09375 -2 22.796875 -2 
C 33.5 -2 42.5 5.65625 42.5 15.78125 
C 42.5 24.84375 36.40625 29.015625 32.40625 31.703125 
z
M 14.09375 44.09375 
C 13.296875 44.59375 9.296875 47.671875 9.296875 52.359375 
C 9.296875 58.421875 15.59375 63 22.796875 63 
C 30.703125 63 36.5 57.4375 36.5 50.96875 
C 36.5 41.703125 26.09375 36.421875 25.59375 36.421875 
C 25.5 36.421875 25.40625 36.421875 24.59375 37.03125 
z
M 32.5 23.734375 
C 34 22.640625 38.796875 19.375 38.796875 13.296875 
C 38.796875 5.953125 31.40625 0.390625 23 0.390625 
C 13.90625 0.390625 7 6.84375 7 14.6875 
C 7 22.546875 13.09375 29.09375 20 32.1875 
z
" id="CMR17-56"/>
      </defs>
      <g transform="translate(191.436164 271.286426)scale(0.09 -0.09)">
       <use transform="scale(0.996264)" xlink:href="#CMR17-56"/>
      </g>
     </g>
    </g>
    <g id="xtick_21">
     <g id="line2d_79">
      <path clip-path="url(#p637fa79974)" d="M 212.946159 259.559776 
L 212.946159 134.279888 
" style="fill:none;stroke:#aeaeae;stroke-linecap:square;stroke-width:0.5;"/>
     </g>
     <g id="line2d_80">
      <g>
       <use style="stroke:#000000;stroke-width:0.8;" x="212.946159" xlink:href="#mca98f1c5a6" y="259.559776"/>
      </g>
     </g>
     <g id="text_21">
      <!-- $9$ -->
      <defs>
       <path d="M 35.203125 29.125 
C 35.203125 7.25 26.09375 0.484375 18.59375 0.484375 
C 16.296875 0.484375 10.703125 0.484375 8.40625 4.59375 
C 11 4.1875 12.90625 5.578125 12.90625 8.09375 
C 12.90625 10.8125 10.703125 11.703125 9.296875 11.703125 
C 8.40625 11.703125 5.703125 11.296875 5.703125 7.90625 
C 5.703125 1.109375 11.59375 -2 18.796875 -2 
C 30.296875 -2 42 10.53125 42 32.390625 
C 42 59.640625 30.796875 65.296875 23.203125 65.296875 
C 13.296875 65.296875 3.796875 56.6875 3.796875 43.40625 
C 3.796875 31.109375 11.90625 22 22.09375 22 
C 30.5 22 34.203125 29.734375 35.203125 33 
z
M 22.296875 23.59375 
C 19.59375 23.59375 15.796875 24.09375 12.703125 30.03125 
C 10.59375 33.890625 10.59375 38.453125 10.59375 43.296875 
C 10.59375 49.15625 10.59375 53.203125 13.40625 57.5625 
C 14.796875 59.640625 17.40625 63 23.203125 63 
C 35 63 35 45.078125 35 41.125 
C 35 34.09375 31.796875 23.59375 22.296875 23.59375 
" id="CMR17-57"/>
      </defs>
      <g transform="translate(210.642314 271.286426)scale(0.09 -0.09)">
       <use transform="scale(0.996264)" xlink:href="#CMR17-57"/>
      </g>
     </g>
    </g>
    <g id="xtick_22">
     <g id="line2d_81">
      <path clip-path="url(#p637fa79974)" d="M 232.152309 259.559776 
L 232.152309 134.279888 
" style="fill:none;stroke:#aeaeae;stroke-linecap:square;stroke-width:0.5;"/>
     </g>
     <g id="line2d_82">
      <g>
       <use style="stroke:#000000;stroke-width:0.8;" x="232.152309" xlink:href="#mca98f1c5a6" y="259.559776"/>
      </g>
     </g>
     <g id="text_22">
      <!-- $10$ -->
      <g transform="translate(227.544619 271.286426)scale(0.09 -0.09)">
       <use transform="scale(0.996264)" xlink:href="#CMR17-49"/>
       <use transform="translate(45.690477 0)scale(0.996264)" xlink:href="#CMR17-48"/>
      </g>
     </g>
    </g>
    <g id="text_23">
     <!-- D -->
     <g transform="translate(132.602149 283.256538)scale(0.09 -0.09)">
      <use transform="scale(0.996264)" xlink:href="#CMR17-68"/>
     </g>
    </g>
   </g>
   <g id="matplotlib.axis_4">
    <g id="ytick_17">
     <g id="line2d_83">
      <path clip-path="url(#p637fa79974)" d="M 40.090809 233.256743 
L 232.152309 233.256743 
" style="fill:none;stroke:#aeaeae;stroke-linecap:square;stroke-width:0.5;"/>
     </g>
     <g id="line2d_84">
      <g>
       <use style="stroke:#000000;stroke-width:0.8;" x="40.090809" xlink:href="#m624c7211be" y="233.256743"/>
      </g>
     </g>
     <g id="text_24">
      <!-- $10^{-2}$ -->
      <g transform="translate(15.966376 236.370068)scale(0.09 -0.09)">
       <use transform="scale(0.996264)" xlink:href="#CMR17-49"/>
       <use transform="translate(45.690477 0)scale(0.996264)" xlink:href="#CMR17-48"/>
       <use transform="translate(91.380954 36.153639)scale(0.697382)" xlink:href="#CMSY10-0"/>
       <use transform="translate(145.621947 36.153639)scale(0.697382)" xlink:href="#CMR17-50"/>
      </g>
     </g>
    </g>
    <g id="ytick_18">
     <g id="line2d_85">
      <path clip-path="url(#p637fa79974)" d="M 40.090809 201.162493 
L 232.152309 201.162493 
" style="fill:none;stroke:#aeaeae;stroke-linecap:square;stroke-width:0.5;"/>
     </g>
     <g id="line2d_86">
      <g>
       <use style="stroke:#000000;stroke-width:0.8;" x="40.090809" xlink:href="#m624c7211be" y="201.162493"/>
      </g>
     </g>
     <g id="text_25">
      <!-- $10^{0}$ -->
      <g transform="translate(21.722516 204.275818)scale(0.09 -0.09)">
       <use transform="scale(0.996264)" xlink:href="#CMR17-49"/>
       <use transform="translate(45.690477 0)scale(0.996264)" xlink:href="#CMR17-48"/>
       <use transform="translate(91.380954 36.153639)scale(0.697382)" xlink:href="#CMR17-48"/>
      </g>
     </g>
    </g>
    <g id="ytick_19">
     <g id="line2d_87">
      <path clip-path="url(#p637fa79974)" d="M 40.090809 169.068243 
L 232.152309 169.068243 
" style="fill:none;stroke:#aeaeae;stroke-linecap:square;stroke-width:0.5;"/>
     </g>
     <g id="line2d_88">
      <g>
       <use style="stroke:#000000;stroke-width:0.8;" x="40.090809" xlink:href="#m624c7211be" y="169.068243"/>
      </g>
     </g>
     <g id="text_26">
      <!-- $10^{2}$ -->
      <g transform="translate(21.722516 172.181568)scale(0.09 -0.09)">
       <use transform="scale(0.996264)" xlink:href="#CMR17-49"/>
       <use transform="translate(45.690477 0)scale(0.996264)" xlink:href="#CMR17-48"/>
       <use transform="translate(91.380954 36.153639)scale(0.697382)" xlink:href="#CMR17-50"/>
      </g>
     </g>
    </g>
    <g id="ytick_20">
     <g id="line2d_89">
      <path clip-path="url(#p637fa79974)" d="M 40.090809 136.973993 
L 232.152309 136.973993 
" style="fill:none;stroke:#aeaeae;stroke-linecap:square;stroke-width:0.5;"/>
     </g>
     <g id="line2d_90">
      <g>
       <use style="stroke:#000000;stroke-width:0.8;" x="40.090809" xlink:href="#m624c7211be" y="136.973993"/>
      </g>
     </g>
     <g id="text_27">
      <!-- $10^{4}$ -->
      <g transform="translate(21.722516 140.087318)scale(0.09 -0.09)">
       <use transform="scale(0.996264)" xlink:href="#CMR17-49"/>
       <use transform="translate(45.690477 0)scale(0.996264)" xlink:href="#CMR17-48"/>
       <use transform="translate(91.380954 36.153639)scale(0.697382)" xlink:href="#CMR17-52"/>
      </g>
     </g>
    </g>
    <g id="ytick_21">
     <g id="line2d_91">
      <g>
       <use style="stroke:#000000;stroke-width:0.6;" x="40.090809" xlink:href="#ma056ffa0c4" y="255.689661"/>
      </g>
     </g>
    </g>
    <g id="ytick_22">
     <g id="line2d_92">
      <g>
       <use style="stroke:#000000;stroke-width:0.6;" x="40.090809" xlink:href="#ma056ffa0c4" y="252.863902"/>
      </g>
     </g>
    </g>
    <g id="ytick_23">
     <g id="line2d_93">
      <g>
       <use style="stroke:#000000;stroke-width:0.6;" x="40.090809" xlink:href="#ma056ffa0c4" y="250.858995"/>
      </g>
     </g>
    </g>
    <g id="ytick_24">
     <g id="line2d_94">
      <g>
       <use style="stroke:#000000;stroke-width:0.6;" x="40.090809" xlink:href="#ma056ffa0c4" y="228.426077"/>
      </g>
     </g>
    </g>
    <g id="ytick_25">
     <g id="line2d_95">
      <g>
       <use style="stroke:#000000;stroke-width:0.6;" x="40.090809" xlink:href="#ma056ffa0c4" y="223.595411"/>
      </g>
     </g>
    </g>
    <g id="ytick_26">
     <g id="line2d_96">
      <g>
       <use style="stroke:#000000;stroke-width:0.6;" x="40.090809" xlink:href="#ma056ffa0c4" y="220.769652"/>
      </g>
     </g>
    </g>
    <g id="ytick_27">
     <g id="line2d_97">
      <g>
       <use style="stroke:#000000;stroke-width:0.6;" x="40.090809" xlink:href="#ma056ffa0c4" y="218.764745"/>
      </g>
     </g>
    </g>
    <g id="ytick_28">
     <g id="line2d_98">
      <g>
       <use style="stroke:#000000;stroke-width:0.6;" x="40.090809" xlink:href="#ma056ffa0c4" y="196.331827"/>
      </g>
     </g>
    </g>
    <g id="ytick_29">
     <g id="line2d_99">
      <g>
       <use style="stroke:#000000;stroke-width:0.6;" x="40.090809" xlink:href="#ma056ffa0c4" y="191.501161"/>
      </g>
     </g>
    </g>
    <g id="ytick_30">
     <g id="line2d_100">
      <g>
       <use style="stroke:#000000;stroke-width:0.6;" x="40.090809" xlink:href="#ma056ffa0c4" y="188.675402"/>
      </g>
     </g>
    </g>
    <g id="ytick_31">
     <g id="line2d_101">
      <g>
       <use style="stroke:#000000;stroke-width:0.6;" x="40.090809" xlink:href="#ma056ffa0c4" y="186.670495"/>
      </g>
     </g>
    </g>
    <g id="ytick_32">
     <g id="line2d_102">
      <g>
       <use style="stroke:#000000;stroke-width:0.6;" x="40.090809" xlink:href="#ma056ffa0c4" y="164.237577"/>
      </g>
     </g>
    </g>
    <g id="ytick_33">
     <g id="line2d_103">
      <g>
       <use style="stroke:#000000;stroke-width:0.6;" x="40.090809" xlink:href="#ma056ffa0c4" y="159.406911"/>
      </g>
     </g>
    </g>
    <g id="ytick_34">
     <g id="line2d_104">
      <g>
       <use style="stroke:#000000;stroke-width:0.6;" x="40.090809" xlink:href="#ma056ffa0c4" y="156.581152"/>
      </g>
     </g>
    </g>
    <g id="ytick_35">
     <g id="line2d_105">
      <g>
       <use style="stroke:#000000;stroke-width:0.6;" x="40.090809" xlink:href="#ma056ffa0c4" y="154.576245"/>
      </g>
     </g>
    </g>
    <g id="text_28">
     <!-- Difference (\%) -->
     <g transform="translate(9.724782 225.925083)rotate(-90)scale(0.09 -0.09)">
      <use transform="scale(0.996264)" xlink:href="#CMR17-68"/>
      <use transform="translate(70.393556 0)scale(0.996264)" xlink:href="#CMR17-105"/>
      <use transform="translate(95.264614 0)scale(0.996264)" xlink:href="#CMR17-11"/>
      <use transform="translate(147.609292 0)scale(0.996264)" xlink:href="#CMR17-101"/>
      <use transform="translate(188.094952 0)scale(0.996264)" xlink:href="#CMR17-114"/>
      <use transform="translate(223.37572 0)scale(0.996264)" xlink:href="#CMR17-101"/>
      <use transform="translate(263.86138 0)scale(0.996264)" xlink:href="#CMR17-110"/>
      <use transform="translate(314.75675 0)scale(0.996264)" xlink:href="#CMR17-99"/>
      <use transform="translate(355.242411 0)scale(0.996264)" xlink:href="#CMR17-101"/>
      <use transform="translate(425.804037 0)scale(0.996264)" xlink:href="#CMR17-40"/>
      <use transform="translate(461.084805 0)scale(0.996264)" xlink:href="#CMR17-37"/>
      <use transform="translate(538.004395 0)scale(0.996264)" xlink:href="#CMR17-41"/>
     </g>
    </g>
   </g>
   <g id="line2d_106">
    <path clip-path="url(#p637fa79974)" d="M 49.693884 145.712664 
L 59.296959 172.212201 
L 68.900034 179.7446 
L 78.503109 180.464596 
L 88.106184 180.063308 
L 97.709259 179.929849 
L 107.312334 180.095956 
L 116.915409 180.699971 
L 126.518484 181.343648 
L 136.121559 181.654907 
L 145.724634 181.884128 
L 155.327709 182.219651 
L 164.930784 182.77087 
L 174.533859 183.224645 
L 184.136934 183.460265 
L 193.740009 184.243044 
L 203.343084 184.696156 
L 212.946159 185.320341 
L 222.549234 185.515353 
L 232.152309 185.7857 
" style="fill:none;stroke:#1f77b4;stroke-linecap:square;"/>
    <defs>
     <path d="M 0 2 
C 0.530406 2 1.03916 1.789267 1.414214 1.414214 
C 1.789267 1.03916 2 0.530406 2 0 
C 2 -0.530406 1.789267 -1.03916 1.414214 -1.414214 
C 1.03916 -1.789267 0.530406 -2 0 -2 
C -0.530406 -2 -1.03916 -1.789267 -1.414214 -1.414214 
C -1.789267 -1.03916 -2 -0.530406 -2 0 
C -2 0.530406 -1.789267 1.03916 -1.414214 1.414214 
C -1.03916 1.789267 -0.530406 2 0 2 
z
" id="m3912ce701b" style="stroke:#1f77b4;"/>
    </defs>
    <g clip-path="url(#p637fa79974)">
     <use style="fill:#1f77b4;stroke:#1f77b4;" x="49.693884" xlink:href="#m3912ce701b" y="145.712664"/>
     <use style="fill:#1f77b4;stroke:#1f77b4;" x="59.296959" xlink:href="#m3912ce701b" y="172.212201"/>
     <use style="fill:#1f77b4;stroke:#1f77b4;" x="68.900034" xlink:href="#m3912ce701b" y="179.7446"/>
     <use style="fill:#1f77b4;stroke:#1f77b4;" x="78.503109" xlink:href="#m3912ce701b" y="180.464596"/>
     <use style="fill:#1f77b4;stroke:#1f77b4;" x="88.106184" xlink:href="#m3912ce701b" y="180.063308"/>
     <use style="fill:#1f77b4;stroke:#1f77b4;" x="97.709259" xlink:href="#m3912ce701b" y="179.929849"/>
     <use style="fill:#1f77b4;stroke:#1f77b4;" x="107.312334" xlink:href="#m3912ce701b" y="180.095956"/>
     <use style="fill:#1f77b4;stroke:#1f77b4;" x="116.915409" xlink:href="#m3912ce701b" y="180.699971"/>
     <use style="fill:#1f77b4;stroke:#1f77b4;" x="126.518484" xlink:href="#m3912ce701b" y="181.343648"/>
     <use style="fill:#1f77b4;stroke:#1f77b4;" x="136.121559" xlink:href="#m3912ce701b" y="181.654907"/>
     <use style="fill:#1f77b4;stroke:#1f77b4;" x="145.724634" xlink:href="#m3912ce701b" y="181.884128"/>
     <use style="fill:#1f77b4;stroke:#1f77b4;" x="155.327709" xlink:href="#m3912ce701b" y="182.219651"/>
     <use style="fill:#1f77b4;stroke:#1f77b4;" x="164.930784" xlink:href="#m3912ce701b" y="182.77087"/>
     <use style="fill:#1f77b4;stroke:#1f77b4;" x="174.533859" xlink:href="#m3912ce701b" y="183.224645"/>
     <use style="fill:#1f77b4;stroke:#1f77b4;" x="184.136934" xlink:href="#m3912ce701b" y="183.460265"/>
     <use style="fill:#1f77b4;stroke:#1f77b4;" x="193.740009" xlink:href="#m3912ce701b" y="184.243044"/>
     <use style="fill:#1f77b4;stroke:#1f77b4;" x="203.343084" xlink:href="#m3912ce701b" y="184.696156"/>
     <use style="fill:#1f77b4;stroke:#1f77b4;" x="212.946159" xlink:href="#m3912ce701b" y="185.320341"/>
     <use style="fill:#1f77b4;stroke:#1f77b4;" x="222.549234" xlink:href="#m3912ce701b" y="185.515353"/>
     <use style="fill:#1f77b4;stroke:#1f77b4;" x="232.152309" xlink:href="#m3912ce701b" y="185.7857"/>
    </g>
   </g>
   <g id="line2d_107">
    <path clip-path="url(#p637fa79974)" d="M 49.693884 142.144408 
L 59.296959 168.274365 
L 68.900034 187.511304 
L 78.503109 200.451682 
L 88.106184 205.832163 
L 97.709259 213.264771 
L 107.312334 215.44746 
L 116.915409 221.082272 
L 126.518484 221.165602 
L 136.121559 221.564127 
L 145.724634 220.051935 
L 155.327709 220.618117 
L 164.930784 220.259947 
L 174.533859 220.780823 
L 184.136934 220.658465 
L 193.740009 220.793186 
L 203.343084 220.782136 
L 212.946159 221.109657 
L 222.549234 221.115335 
L 232.152309 221.201135 
" style="fill:none;stroke:#ff7f0e;stroke-linecap:square;"/>
    <defs>
     <path d="M -2 2 
L 2 2 
L 2 -2 
L -2 -2 
z
" id="m7a5ab7eb3f" style="stroke:#ff7f0e;stroke-linejoin:miter;"/>
    </defs>
    <g clip-path="url(#p637fa79974)">
     <use style="fill:#ff7f0e;stroke:#ff7f0e;stroke-linejoin:miter;" x="49.693884" xlink:href="#m7a5ab7eb3f" y="142.144408"/>
     <use style="fill:#ff7f0e;stroke:#ff7f0e;stroke-linejoin:miter;" x="59.296959" xlink:href="#m7a5ab7eb3f" y="168.274365"/>
     <use style="fill:#ff7f0e;stroke:#ff7f0e;stroke-linejoin:miter;" x="68.900034" xlink:href="#m7a5ab7eb3f" y="187.511304"/>
     <use style="fill:#ff7f0e;stroke:#ff7f0e;stroke-linejoin:miter;" x="78.503109" xlink:href="#m7a5ab7eb3f" y="200.451682"/>
     <use style="fill:#ff7f0e;stroke:#ff7f0e;stroke-linejoin:miter;" x="88.106184" xlink:href="#m7a5ab7eb3f" y="205.832163"/>
     <use style="fill:#ff7f0e;stroke:#ff7f0e;stroke-linejoin:miter;" x="97.709259" xlink:href="#m7a5ab7eb3f" y="213.264771"/>
     <use style="fill:#ff7f0e;stroke:#ff7f0e;stroke-linejoin:miter;" x="107.312334" xlink:href="#m7a5ab7eb3f" y="215.44746"/>
     <use style="fill:#ff7f0e;stroke:#ff7f0e;stroke-linejoin:miter;" x="116.915409" xlink:href="#m7a5ab7eb3f" y="221.082272"/>
     <use style="fill:#ff7f0e;stroke:#ff7f0e;stroke-linejoin:miter;" x="126.518484" xlink:href="#m7a5ab7eb3f" y="221.165602"/>
     <use style="fill:#ff7f0e;stroke:#ff7f0e;stroke-linejoin:miter;" x="136.121559" xlink:href="#m7a5ab7eb3f" y="221.564127"/>
     <use style="fill:#ff7f0e;stroke:#ff7f0e;stroke-linejoin:miter;" x="145.724634" xlink:href="#m7a5ab7eb3f" y="220.051935"/>
     <use style="fill:#ff7f0e;stroke:#ff7f0e;stroke-linejoin:miter;" x="155.327709" xlink:href="#m7a5ab7eb3f" y="220.618117"/>
     <use style="fill:#ff7f0e;stroke:#ff7f0e;stroke-linejoin:miter;" x="164.930784" xlink:href="#m7a5ab7eb3f" y="220.259947"/>
     <use style="fill:#ff7f0e;stroke:#ff7f0e;stroke-linejoin:miter;" x="174.533859" xlink:href="#m7a5ab7eb3f" y="220.780823"/>
     <use style="fill:#ff7f0e;stroke:#ff7f0e;stroke-linejoin:miter;" x="184.136934" xlink:href="#m7a5ab7eb3f" y="220.658465"/>
     <use style="fill:#ff7f0e;stroke:#ff7f0e;stroke-linejoin:miter;" x="193.740009" xlink:href="#m7a5ab7eb3f" y="220.793186"/>
     <use style="fill:#ff7f0e;stroke:#ff7f0e;stroke-linejoin:miter;" x="203.343084" xlink:href="#m7a5ab7eb3f" y="220.782136"/>
     <use style="fill:#ff7f0e;stroke:#ff7f0e;stroke-linejoin:miter;" x="212.946159" xlink:href="#m7a5ab7eb3f" y="221.109657"/>
     <use style="fill:#ff7f0e;stroke:#ff7f0e;stroke-linejoin:miter;" x="222.549234" xlink:href="#m7a5ab7eb3f" y="221.115335"/>
     <use style="fill:#ff7f0e;stroke:#ff7f0e;stroke-linejoin:miter;" x="232.152309" xlink:href="#m7a5ab7eb3f" y="221.201135"/>
    </g>
   </g>
   <g id="line2d_108">
    <path clip-path="url(#p637fa79974)" d="M 49.693884 140.627097 
L 59.296959 166.802802 
L 68.900034 184.276497 
L 78.503109 193.998785 
L 88.106184 202.845249 
L 97.709259 211.702476 
L 107.312334 213.611248 
L 116.915409 216.518259 
L 126.518484 225.153096 
L 136.121559 226.164931 
L 145.724634 228.343838 
L 155.327709 232.138702 
L 164.930784 232.001724 
L 174.533859 240.853481 
L 184.136934 242.430493 
L 193.740009 241.660008 
L 203.343084 240.878122 
L 212.946159 242.071306 
L 222.549234 246.512149 
L 232.152309 253.865235 
" style="fill:none;stroke:#2ca02c;stroke-linecap:square;"/>
    <defs>
     <path d="M 0 -2 
L -2 2 
L 2 2 
z
" id="m7023043df5" style="stroke:#2ca02c;stroke-linejoin:miter;"/>
    </defs>
    <g clip-path="url(#p637fa79974)">
     <use style="fill:#2ca02c;stroke:#2ca02c;stroke-linejoin:miter;" x="49.693884" xlink:href="#m7023043df5" y="140.627097"/>
     <use style="fill:#2ca02c;stroke:#2ca02c;stroke-linejoin:miter;" x="59.296959" xlink:href="#m7023043df5" y="166.802802"/>
     <use style="fill:#2ca02c;stroke:#2ca02c;stroke-linejoin:miter;" x="68.900034" xlink:href="#m7023043df5" y="184.276497"/>
     <use style="fill:#2ca02c;stroke:#2ca02c;stroke-linejoin:miter;" x="78.503109" xlink:href="#m7023043df5" y="193.998785"/>
     <use style="fill:#2ca02c;stroke:#2ca02c;stroke-linejoin:miter;" x="88.106184" xlink:href="#m7023043df5" y="202.845249"/>
     <use style="fill:#2ca02c;stroke:#2ca02c;stroke-linejoin:miter;" x="97.709259" xlink:href="#m7023043df5" y="211.702476"/>
     <use style="fill:#2ca02c;stroke:#2ca02c;stroke-linejoin:miter;" x="107.312334" xlink:href="#m7023043df5" y="213.611248"/>
     <use style="fill:#2ca02c;stroke:#2ca02c;stroke-linejoin:miter;" x="116.915409" xlink:href="#m7023043df5" y="216.518259"/>
     <use style="fill:#2ca02c;stroke:#2ca02c;stroke-linejoin:miter;" x="126.518484" xlink:href="#m7023043df5" y="225.153096"/>
     <use style="fill:#2ca02c;stroke:#2ca02c;stroke-linejoin:miter;" x="136.121559" xlink:href="#m7023043df5" y="226.164931"/>
     <use style="fill:#2ca02c;stroke:#2ca02c;stroke-linejoin:miter;" x="145.724634" xlink:href="#m7023043df5" y="228.343838"/>
     <use style="fill:#2ca02c;stroke:#2ca02c;stroke-linejoin:miter;" x="155.327709" xlink:href="#m7023043df5" y="232.138702"/>
     <use style="fill:#2ca02c;stroke:#2ca02c;stroke-linejoin:miter;" x="164.930784" xlink:href="#m7023043df5" y="232.001724"/>
     <use style="fill:#2ca02c;stroke:#2ca02c;stroke-linejoin:miter;" x="174.533859" xlink:href="#m7023043df5" y="240.853481"/>
     <use style="fill:#2ca02c;stroke:#2ca02c;stroke-linejoin:miter;" x="184.136934" xlink:href="#m7023043df5" y="242.430493"/>
     <use style="fill:#2ca02c;stroke:#2ca02c;stroke-linejoin:miter;" x="193.740009" xlink:href="#m7023043df5" y="241.660008"/>
     <use style="fill:#2ca02c;stroke:#2ca02c;stroke-linejoin:miter;" x="203.343084" xlink:href="#m7023043df5" y="240.878122"/>
     <use style="fill:#2ca02c;stroke:#2ca02c;stroke-linejoin:miter;" x="212.946159" xlink:href="#m7023043df5" y="242.071306"/>
     <use style="fill:#2ca02c;stroke:#2ca02c;stroke-linejoin:miter;" x="222.549234" xlink:href="#m7023043df5" y="246.512149"/>
     <use style="fill:#2ca02c;stroke:#2ca02c;stroke-linejoin:miter;" x="232.152309" xlink:href="#m7023043df5" y="253.865235"/>
    </g>
   </g>
   <g id="line2d_109">
    <path clip-path="url(#p637fa79974)" d="M 49.693884 139.974428 
L 59.296959 166.152329 
L 68.900034 182.081186 
L 78.503109 190.86452 
L 88.106184 202.463728 
L 97.709259 209.024943 
L 107.312334 215.770801 
L 116.915409 214.000757 
L 126.518484 221.938568 
L 136.121559 225.704529 
L 145.724634 228.589927 
L 155.327709 231.797745 
L 164.930784 232.815037 
L 174.533859 238.668349 
L 184.136934 243.225205 
L 193.740009 237.327963 
L 203.343084 239.82264 
L 212.946159 240.90857 
L 222.549234 246.85024 
L 232.152309 251.09771 
" style="fill:none;stroke:#d62728;stroke-linecap:square;"/>
    <g clip-path="url(#p637fa79974)">
     <use style="fill:#d62728;stroke:#d62728;stroke-linejoin:miter;" x="49.693884" xlink:href="#m4f5555f98d" y="139.974428"/>
     <use style="fill:#d62728;stroke:#d62728;stroke-linejoin:miter;" x="59.296959" xlink:href="#m4f5555f98d" y="166.152329"/>
     <use style="fill:#d62728;stroke:#d62728;stroke-linejoin:miter;" x="68.900034" xlink:href="#m4f5555f98d" y="182.081186"/>
     <use style="fill:#d62728;stroke:#d62728;stroke-linejoin:miter;" x="78.503109" xlink:href="#m4f5555f98d" y="190.86452"/>
     <use style="fill:#d62728;stroke:#d62728;stroke-linejoin:miter;" x="88.106184" xlink:href="#m4f5555f98d" y="202.463728"/>
     <use style="fill:#d62728;stroke:#d62728;stroke-linejoin:miter;" x="97.709259" xlink:href="#m4f5555f98d" y="209.024943"/>
     <use style="fill:#d62728;stroke:#d62728;stroke-linejoin:miter;" x="107.312334" xlink:href="#m4f5555f98d" y="215.770801"/>
     <use style="fill:#d62728;stroke:#d62728;stroke-linejoin:miter;" x="116.915409" xlink:href="#m4f5555f98d" y="214.000757"/>
     <use style="fill:#d62728;stroke:#d62728;stroke-linejoin:miter;" x="126.518484" xlink:href="#m4f5555f98d" y="221.938568"/>
     <use style="fill:#d62728;stroke:#d62728;stroke-linejoin:miter;" x="136.121559" xlink:href="#m4f5555f98d" y="225.704529"/>
     <use style="fill:#d62728;stroke:#d62728;stroke-linejoin:miter;" x="145.724634" xlink:href="#m4f5555f98d" y="228.589927"/>
     <use style="fill:#d62728;stroke:#d62728;stroke-linejoin:miter;" x="155.327709" xlink:href="#m4f5555f98d" y="231.797745"/>
     <use style="fill:#d62728;stroke:#d62728;stroke-linejoin:miter;" x="164.930784" xlink:href="#m4f5555f98d" y="232.815037"/>
     <use style="fill:#d62728;stroke:#d62728;stroke-linejoin:miter;" x="174.533859" xlink:href="#m4f5555f98d" y="238.668349"/>
     <use style="fill:#d62728;stroke:#d62728;stroke-linejoin:miter;" x="184.136934" xlink:href="#m4f5555f98d" y="243.225205"/>
     <use style="fill:#d62728;stroke:#d62728;stroke-linejoin:miter;" x="193.740009" xlink:href="#m4f5555f98d" y="237.327963"/>
     <use style="fill:#d62728;stroke:#d62728;stroke-linejoin:miter;" x="203.343084" xlink:href="#m4f5555f98d" y="239.82264"/>
     <use style="fill:#d62728;stroke:#d62728;stroke-linejoin:miter;" x="212.946159" xlink:href="#m4f5555f98d" y="240.90857"/>
     <use style="fill:#d62728;stroke:#d62728;stroke-linejoin:miter;" x="222.549234" xlink:href="#m4f5555f98d" y="246.85024"/>
     <use style="fill:#d62728;stroke:#d62728;stroke-linejoin:miter;" x="232.152309" xlink:href="#m4f5555f98d" y="251.09771"/>
    </g>
   </g>
   <g id="line2d_110">
    <path clip-path="url(#p637fa79974)" d="M 40.090809 217.209618 
L 232.152309 217.209618 
" style="fill:none;stroke:#000000;stroke-dasharray:5.6,2.4;stroke-dashoffset:0;stroke-width:0.5;"/>
   </g>
   <g id="patch_9">
    <path d="M 40.090809 259.559776 
L 40.090809 134.279888 
" style="fill:none;stroke:#3a3a3a;stroke-linecap:square;stroke-linejoin:miter;"/>
   </g>
   <g id="patch_10">
    <path d="M 232.152309 259.559776 
L 232.152309 134.279888 
" style="fill:none;stroke:#3a3a3a;stroke-linecap:square;stroke-linejoin:miter;"/>
   </g>
   <g id="patch_11">
    <path d="M 40.090809 259.559776 
L 232.152309 259.559776 
" style="fill:none;stroke:#3a3a3a;stroke-linecap:square;stroke-linejoin:miter;"/>
   </g>
   <g id="patch_12">
    <path d="M 40.090809 134.279888 
L 232.152309 134.279888 
" style="fill:none;stroke:#3a3a3a;stroke-linecap:square;stroke-linejoin:miter;"/>
   </g>
   <g id="text_29">
    <!-- (b) -->
    <g style="fill:#3a3a3a;" transform="translate(-0.242106 146.807877)scale(0.12 -0.12)">
     <use transform="scale(0.996264)" xlink:href="#CMR17-40"/>
     <use transform="translate(35.280768 0)scale(0.996264)" xlink:href="#CMR17-98"/>
     <use transform="translate(86.176138 0)scale(0.996264)" xlink:href="#CMR17-41"/>
    </g>
   </g>
   <g id="legend_2">
    <g id="patch_13">
     <path d="M 153.791214 191.653736 
L 225.852309 191.653736 
Q 227.652309 191.653736 227.652309 189.853736 
L 227.652309 140.579888 
Q 227.652309 138.779888 225.852309 138.779888 
L 153.791214 138.779888 
Q 151.991214 138.779888 151.991214 140.579888 
L 151.991214 189.853736 
Q 151.991214 191.653736 153.791214 191.653736 
z
" style="fill:#ffffff;opacity:0.8;stroke:#cccccc;stroke-linejoin:miter;"/>
    </g>
    <g id="line2d_111">
     <path d="M 155.591214 145.529888 
L 173.591214 145.529888 
" style="fill:none;stroke:#1f77b4;stroke-linecap:square;"/>
    </g>
    <g id="line2d_112">
     <g>
      <use style="fill:#1f77b4;stroke:#1f77b4;" x="164.591214" xlink:href="#m3912ce701b" y="145.529888"/>
     </g>
    </g>
    <g id="text_30">
     <!-- b=10km -->
     <g style="fill:#3a3a3a;" transform="translate(180.791214 148.679888)scale(0.09 -0.09)">
      <use transform="scale(0.996264)" xlink:href="#CMR17-98"/>
      <use transform="translate(50.89537 0)scale(0.996264)" xlink:href="#CMR17-61"/>
      <use transform="translate(122.610158 0)scale(0.996264)" xlink:href="#CMR17-49"/>
      <use transform="translate(168.300635 0)scale(0.996264)" xlink:href="#CMR17-48"/>
      <use transform="translate(213.991112 0)scale(0.996264)" xlink:href="#CMR17-107"/>
      <use transform="translate(262.284028 0)scale(0.996264)" xlink:href="#CMR17-109"/>
     </g>
    </g>
    <g id="line2d_113">
     <path d="M 155.591214 158.07335 
L 173.591214 158.07335 
" style="fill:none;stroke:#ff7f0e;stroke-linecap:square;"/>
    </g>
    <g id="line2d_114">
     <g>
      <use style="fill:#ff7f0e;stroke:#ff7f0e;stroke-linejoin:miter;" x="164.591214" xlink:href="#m7a5ab7eb3f" y="158.07335"/>
     </g>
    </g>
    <g id="text_31">
     <!-- b=35km -->
     <g style="fill:#3a3a3a;" transform="translate(180.791214 161.22335)scale(0.09 -0.09)">
      <use transform="scale(0.996264)" xlink:href="#CMR17-98"/>
      <use transform="translate(50.89537 0)scale(0.996264)" xlink:href="#CMR17-61"/>
      <use transform="translate(122.610158 0)scale(0.996264)" xlink:href="#CMR17-51"/>
      <use transform="translate(168.300635 0)scale(0.996264)" xlink:href="#CMR17-53"/>
      <use transform="translate(213.991112 0)scale(0.996264)" xlink:href="#CMR17-107"/>
      <use transform="translate(262.284028 0)scale(0.996264)" xlink:href="#CMR17-109"/>
     </g>
    </g>
    <g id="line2d_115">
     <path d="M 155.591214 170.616812 
L 173.591214 170.616812 
" style="fill:none;stroke:#2ca02c;stroke-linecap:square;"/>
    </g>
    <g id="line2d_116">
     <g>
      <use style="fill:#2ca02c;stroke:#2ca02c;stroke-linejoin:miter;" x="164.591214" xlink:href="#m7023043df5" y="170.616812"/>
     </g>
    </g>
    <g id="text_32">
     <!-- b=100km -->
     <g style="fill:#3a3a3a;" transform="translate(180.791214 173.766812)scale(0.09 -0.09)">
      <use transform="scale(0.996264)" xlink:href="#CMR17-98"/>
      <use transform="translate(50.89537 0)scale(0.996264)" xlink:href="#CMR17-61"/>
      <use transform="translate(122.610158 0)scale(0.996264)" xlink:href="#CMR17-49"/>
      <use transform="translate(168.300635 0)scale(0.996264)" xlink:href="#CMR17-48"/>
      <use transform="translate(213.991112 0)scale(0.996264)" xlink:href="#CMR17-48"/>
      <use transform="translate(259.68159 0)scale(0.996264)" xlink:href="#CMR17-107"/>
      <use transform="translate(307.974505 0)scale(0.996264)" xlink:href="#CMR17-109"/>
     </g>
    </g>
    <g id="line2d_117">
     <path d="M 155.591214 183.160274 
L 173.591214 183.160274 
" style="fill:none;stroke:#d62728;stroke-linecap:square;"/>
    </g>
    <g id="line2d_118">
     <g>
      <use style="fill:#d62728;stroke:#d62728;stroke-linejoin:miter;" x="164.591214" xlink:href="#m4f5555f98d" y="183.160274"/>
     </g>
    </g>
    <g id="text_33">
     <!-- b=1000km -->
     <g style="fill:#3a3a3a;" transform="translate(180.791214 186.310274)scale(0.09 -0.09)">
      <use transform="scale(0.996264)" xlink:href="#CMR17-98"/>
      <use transform="translate(50.89537 0)scale(0.996264)" xlink:href="#CMR17-61"/>
      <use transform="translate(122.610158 0)scale(0.996264)" xlink:href="#CMR17-49"/>
      <use transform="translate(168.300635 0)scale(0.996264)" xlink:href="#CMR17-48"/>
      <use transform="translate(213.991112 0)scale(0.996264)" xlink:href="#CMR17-48"/>
      <use transform="translate(259.68159 0)scale(0.996264)" xlink:href="#CMR17-48"/>
      <use transform="translate(305.372067 0)scale(0.996264)" xlink:href="#CMR17-107"/>
      <use transform="translate(353.664983 0)scale(0.996264)" xlink:href="#CMR17-109"/>
     </g>
    </g>
   </g>
  </g>
 </g>
 <defs>
  <clipPath id="pd924f6b2c8">
   <rect height="125.279888" width="192.0615" x="40.090809" y="5"/>
  </clipPath>
  <clipPath id="p637fa79974">
   <rect height="125.279888" width="192.0615" x="40.090809" y="134.279888"/>
  </clipPath>
 </defs>
</svg>
